M48
; DRILL file KiCad 10.0.1 date 2026-04-29T14:36:28
; FORMAT={-:-/ absolute / metric / decimal}
; #@! TF.CreationDate,2026-04-29T14:36:28+02:00
; #@! TF.GenerationSoftware,Kicad,Pcbnew,10.0.1
; #@! TF.FileFunction,Plated,1,2,PTH
FMAT,2
METRIC
; #@! TA.AperFunction,Plated,PTH,ViaDrill
T1C0.300
; #@! TA.AperFunction,Plated,PTH,ViaDrill
T2C0.400
; #@! TA.AperFunction,Plated,PTH,ComponentDrill
T3C0.762
; #@! TA.AperFunction,Plated,PTH,ComponentDrill
T4C0.800
; #@! TA.AperFunction,Plated,PTH,ComponentDrill
T5C0.950
; #@! TA.AperFunction,Plated,PTH,ComponentDrill
T6C1.000
; #@! TA.AperFunction,Plated,PTH,ComponentDrill
T7C1.016
; #@! TA.AperFunction,Plated,PTH,ComponentDrill
T8C4.500
%
G90
G05
T1
X81.5Y-100.0
X91.5Y-92.5
X93.5Y-105.0
X100.0Y-100.0
X103.5Y-84.5
X105.5Y-75.5
X105.5Y-87.5
X108.0Y-102.5
X110.0Y-89.5
X114.0Y-63.0
X114.0Y-64.5
X114.5Y-66.5
X116.5Y-65.5
X116.5Y-68.0
X118.0Y-66.5
X127.5Y-68.9
X127.5Y-75.0
X132.0Y-58.0
X132.0Y-61.5
X134.5Y-75.5
X138.5Y-63.0
X142.0Y-59.5
X156.0Y-73.5
X161.5Y-91.5
X161.5Y-98.0
X165.0Y-82.0
X168.0Y-95.5
X170.0Y-77.5
X170.12Y-73.38
X171.5Y-74.1
X172.0Y-75.5
X173.5Y-95.5
X174.0Y-82.5
X175.5Y-88.0
X175.5Y-94.0
X176.0Y-75.5
X176.92Y-74.0
X182.5Y-89.5
X182.5Y-100.5
X184.0Y-75.5
X184.5Y-96.5
X185.5Y-74.0
X186.0Y-64.0
X186.0Y-72.5
X188.976Y-104.14
X190.5Y-100.0
X191.0Y-67.0
X192.5Y-88.5
X193.0Y-93.5
X193.5Y-72.5
X194.0Y-83.5
X194.0Y-101.0
X196.5Y-101.0
X199.0Y-94.0
X201.0Y-94.0
X201.0Y-100.0
X203.75Y-67.25
X212.5Y-98.0
X213.0Y-74.0
X216.916Y-74.676
X217.0Y-99.0
X217.932Y-74.676
X228.0Y-122.0
X230.0Y-123.0
T2
X74.676Y-85.344
X76.5Y-75.5
X76.5Y-82.5
X78.5Y-103.886
X78.5Y-115.316
X97.5Y-106.0
X101.0Y-112.0
X219.0Y-131.0
X223.5Y-131.0
X239.0Y-82.0
X240.0Y-89.0
T3
X122.22Y-78.5
X124.76Y-78.5
X127.3Y-78.5
X129.84Y-78.5
X132.38Y-78.5
X134.92Y-78.5
X137.46Y-78.5
X140.0Y-78.5
T4
X47.76Y-105.0
X47.76Y-117.7
X48.5Y-66.0
X48.5Y-78.7
X50.3Y-105.0
X50.3Y-117.7
X51.04Y-66.0
X51.04Y-78.7
X52.84Y-105.0
X52.84Y-117.7
X53.58Y-66.0
X53.58Y-78.7
X55.38Y-105.0
X55.38Y-117.7
X56.12Y-66.0
X56.12Y-78.7
X57.92Y-105.0
X57.92Y-117.7
X58.66Y-66.0
X58.66Y-78.7
X60.46Y-105.0
X60.46Y-117.7
X61.2Y-66.0
X61.2Y-78.7
X63.0Y-105.0
X63.0Y-117.7
X63.74Y-66.0
X63.74Y-78.7
X65.54Y-105.0
X65.54Y-117.7
X66.28Y-66.0
X66.28Y-78.7
X74.92Y-73.0
X77.46Y-73.0
X80.0Y-73.0
X219.92Y-106.0
X219.92Y-118.7
X220.34Y-57.8
X220.34Y-70.5
X222.46Y-106.0
X222.46Y-118.7
X222.88Y-57.8
X222.88Y-70.5
X225.0Y-106.0
X225.0Y-118.7
X225.42Y-57.8
X225.42Y-70.5
X227.54Y-106.0
X227.54Y-118.7
X227.96Y-57.8
X227.96Y-70.5
X230.08Y-106.0
X230.08Y-118.7
X230.5Y-57.8
X230.5Y-70.5
X232.62Y-106.0
X232.62Y-118.7
X233.04Y-57.8
X233.04Y-70.5
X235.16Y-106.0
X235.16Y-118.7
X235.58Y-57.8
X235.58Y-70.5
X237.7Y-106.0
X237.7Y-118.7
X238.12Y-57.8
X238.12Y-70.5
T5
X54.0Y-58.0
X56.5Y-58.0
X56.5Y-127.0
X59.0Y-58.0
X59.0Y-127.0
X61.5Y-58.0
X61.5Y-127.0
X64.0Y-127.0
X107.5Y-54.9
X107.5Y-57.4
X107.5Y-59.9
X107.5Y-62.4
X119.5Y-54.5
X119.5Y-57.0
X119.5Y-59.5
X119.5Y-62.0
X161.5Y-88.0
X161.5Y-101.5
X164.0Y-88.0
X164.0Y-101.5
X166.5Y-88.0
X166.5Y-101.5
X169.0Y-88.0
X169.0Y-101.5
X224.92Y-86.5
X226.42Y-76.5
X226.42Y-96.5
X227.42Y-86.5
X228.92Y-76.5
X228.92Y-96.5
X229.5Y-125.0
X229.92Y-86.5
X231.42Y-76.5
X231.42Y-96.5
X232.0Y-125.0
X232.42Y-86.5
X233.92Y-76.5
X233.92Y-96.5
X234.5Y-125.0
X234.92Y-86.5
X236.42Y-96.5
X237.0Y-125.0
T6
X66.92Y-89.49
X71.0Y-54.92
X71.0Y-57.46
X71.0Y-60.0
X72.0Y-89.5
X74.5Y-124.0
X74.5Y-126.54
X74.5Y-129.08
X97.5Y-94.5
X100.0Y-94.5
X109.5Y-94.5
X112.0Y-94.5
X194.08Y-107.41
X196.62Y-107.41
X197.5Y-78.46
X197.5Y-81.0
X200.04Y-78.46
X200.04Y-81.0
X202.58Y-78.46
X202.58Y-81.0
X205.12Y-78.46
X205.12Y-81.0
X206.08Y-107.41
X208.62Y-107.41
X215.0Y-56.5
X215.0Y-59.04
X215.0Y-61.58
X221.0Y-123.5
X221.0Y-126.04
X221.0Y-128.58
T7
X102.556Y-69.74
X105.096Y-69.74
X107.636Y-69.74
X110.176Y-69.74
X111.7Y-118.0
X112.716Y-69.74
X114.24Y-118.0
X115.256Y-69.74
X116.78Y-118.0
X117.796Y-69.74
X119.32Y-118.0
X120.336Y-69.74
X121.86Y-118.0
X122.876Y-69.74
X124.4Y-118.0
X125.416Y-69.74
X126.94Y-118.0
X129.48Y-69.74
X129.48Y-118.0
X132.02Y-69.74
X134.56Y-69.74
X134.56Y-118.0
X137.1Y-69.74
X137.1Y-118.0
X139.64Y-69.74
X139.64Y-118.0
X142.18Y-69.74
X142.18Y-118.0
X144.72Y-69.74
X144.72Y-118.0
X147.26Y-69.74
X147.26Y-118.0
X147.387Y-90.06
X147.387Y-92.6
X147.387Y-95.14
X149.8Y-118.0
X149.927Y-90.06
X149.927Y-92.6
X149.927Y-95.14
X152.34Y-69.74
X152.34Y-118.0
X154.88Y-69.74
X157.42Y-69.74
X157.42Y-118.0
X159.96Y-69.74
X159.96Y-118.0
X162.5Y-69.74
X162.5Y-118.0
X165.04Y-69.74
X165.04Y-118.0
X167.58Y-69.74
X167.58Y-118.0
X170.12Y-69.74
X170.12Y-118.0
X172.66Y-118.0
X175.2Y-118.0
X177.74Y-69.74
X177.74Y-72.28
X177.74Y-74.82
X177.74Y-77.36
X177.74Y-79.9
X177.74Y-82.44
X177.74Y-84.98
X177.74Y-87.52
X177.74Y-90.06
X177.74Y-92.6
X177.74Y-95.14
X177.74Y-97.68
X177.74Y-100.22
X177.74Y-102.76
X177.74Y-105.3
X177.74Y-107.84
X177.74Y-110.38
X177.74Y-112.92
X180.28Y-69.74
X180.28Y-72.28
X180.28Y-74.82
X180.28Y-77.36
X180.28Y-79.9
X180.28Y-82.44
X180.28Y-84.98
X180.28Y-87.52
X180.28Y-90.06
X180.28Y-92.6
X180.28Y-95.14
X180.28Y-97.68
X180.28Y-100.22
X180.28Y-102.76
X180.28Y-105.3
X180.28Y-107.84
X180.28Y-110.38
X180.28Y-112.92
T8
X56.0Y-88.4
X56.0Y-95.6
M30
