%TF.GenerationSoftware,KiCad,Pcbnew,10.0.1*%
%TF.CreationDate,2026-04-29T14:36:19+02:00*%
%TF.ProjectId,Robot2025LabyrintheTemplate,526f626f-7432-4303-9235-4c6162797269,rev?*%
%TF.SameCoordinates,Original*%
%TF.FileFunction,Legend,Top*%
%TF.FilePolarity,Positive*%
%FSLAX46Y46*%
G04 Gerber Fmt 4.6, Leading zero omitted, Abs format (unit mm)*
G04 Created by KiCad (PCBNEW 10.0.1) date 2026-04-29 14:36:19*
%MOMM*%
%LPD*%
G01*
G04 APERTURE LIST*
%ADD10C,0.150000*%
%ADD11C,0.100000*%
%ADD12C,0.120000*%
%ADD13C,0.200000*%
G04 APERTURE END LIST*
D10*
X64285905Y-93926819D02*
X64285905Y-92926819D01*
X64285905Y-92926819D02*
X64524000Y-92926819D01*
X64524000Y-92926819D02*
X64666857Y-92974438D01*
X64666857Y-92974438D02*
X64762095Y-93069676D01*
X64762095Y-93069676D02*
X64809714Y-93164914D01*
X64809714Y-93164914D02*
X64857333Y-93355390D01*
X64857333Y-93355390D02*
X64857333Y-93498247D01*
X64857333Y-93498247D02*
X64809714Y-93688723D01*
X64809714Y-93688723D02*
X64762095Y-93783961D01*
X64762095Y-93783961D02*
X64666857Y-93879200D01*
X64666857Y-93879200D02*
X64524000Y-93926819D01*
X64524000Y-93926819D02*
X64285905Y-93926819D01*
X65190667Y-92926819D02*
X65809714Y-92926819D01*
X65809714Y-92926819D02*
X65476381Y-93307771D01*
X65476381Y-93307771D02*
X65619238Y-93307771D01*
X65619238Y-93307771D02*
X65714476Y-93355390D01*
X65714476Y-93355390D02*
X65762095Y-93403009D01*
X65762095Y-93403009D02*
X65809714Y-93498247D01*
X65809714Y-93498247D02*
X65809714Y-93736342D01*
X65809714Y-93736342D02*
X65762095Y-93831580D01*
X65762095Y-93831580D02*
X65714476Y-93879200D01*
X65714476Y-93879200D02*
X65619238Y-93926819D01*
X65619238Y-93926819D02*
X65333524Y-93926819D01*
X65333524Y-93926819D02*
X65238286Y-93879200D01*
X65238286Y-93879200D02*
X65190667Y-93831580D01*
X76738075Y-70832900D02*
X76852361Y-70870995D01*
X76852361Y-70870995D02*
X77042837Y-70870995D01*
X77042837Y-70870995D02*
X77119028Y-70832900D01*
X77119028Y-70832900D02*
X77157123Y-70794804D01*
X77157123Y-70794804D02*
X77195218Y-70718614D01*
X77195218Y-70718614D02*
X77195218Y-70642423D01*
X77195218Y-70642423D02*
X77157123Y-70566233D01*
X77157123Y-70566233D02*
X77119028Y-70528138D01*
X77119028Y-70528138D02*
X77042837Y-70490042D01*
X77042837Y-70490042D02*
X76890456Y-70451947D01*
X76890456Y-70451947D02*
X76814266Y-70413852D01*
X76814266Y-70413852D02*
X76776171Y-70375757D01*
X76776171Y-70375757D02*
X76738075Y-70299566D01*
X76738075Y-70299566D02*
X76738075Y-70223376D01*
X76738075Y-70223376D02*
X76776171Y-70147185D01*
X76776171Y-70147185D02*
X76814266Y-70109090D01*
X76814266Y-70109090D02*
X76890456Y-70070995D01*
X76890456Y-70070995D02*
X77080933Y-70070995D01*
X77080933Y-70070995D02*
X77195218Y-70109090D01*
X77957123Y-70870995D02*
X77499980Y-70870995D01*
X77728552Y-70870995D02*
X77728552Y-70070995D01*
X77728552Y-70070995D02*
X77652361Y-70185280D01*
X77652361Y-70185280D02*
X77576171Y-70261471D01*
X77576171Y-70261471D02*
X77499980Y-70299566D01*
X229110476Y-82404819D02*
X229110476Y-83119104D01*
X229110476Y-83119104D02*
X229062857Y-83261961D01*
X229062857Y-83261961D02*
X228967619Y-83357200D01*
X228967619Y-83357200D02*
X228824762Y-83404819D01*
X228824762Y-83404819D02*
X228729524Y-83404819D01*
X230110476Y-83404819D02*
X229539048Y-83404819D01*
X229824762Y-83404819D02*
X229824762Y-82404819D01*
X229824762Y-82404819D02*
X229729524Y-82547676D01*
X229729524Y-82547676D02*
X229634286Y-82642914D01*
X229634286Y-82642914D02*
X229539048Y-82690533D01*
X230443810Y-82404819D02*
X231062857Y-82404819D01*
X231062857Y-82404819D02*
X230729524Y-82785771D01*
X230729524Y-82785771D02*
X230872381Y-82785771D01*
X230872381Y-82785771D02*
X230967619Y-82833390D01*
X230967619Y-82833390D02*
X231015238Y-82881009D01*
X231015238Y-82881009D02*
X231062857Y-82976247D01*
X231062857Y-82976247D02*
X231062857Y-83214342D01*
X231062857Y-83214342D02*
X231015238Y-83309580D01*
X231015238Y-83309580D02*
X230967619Y-83357200D01*
X230967619Y-83357200D02*
X230872381Y-83404819D01*
X230872381Y-83404819D02*
X230586667Y-83404819D01*
X230586667Y-83404819D02*
X230491429Y-83357200D01*
X230491429Y-83357200D02*
X230443810Y-83309580D01*
X68989104Y-73064285D02*
X68989104Y-72588095D01*
X69274819Y-73159523D02*
X68274819Y-72826190D01*
X68274819Y-72826190D02*
X69274819Y-72492857D01*
X69274819Y-71635714D02*
X69274819Y-72207142D01*
X69274819Y-71921428D02*
X68274819Y-71921428D01*
X68274819Y-71921428D02*
X68417676Y-72016666D01*
X68417676Y-72016666D02*
X68512914Y-72111904D01*
X68512914Y-72111904D02*
X68560533Y-72207142D01*
X229360476Y-72404819D02*
X229360476Y-73119104D01*
X229360476Y-73119104D02*
X229312857Y-73261961D01*
X229312857Y-73261961D02*
X229217619Y-73357200D01*
X229217619Y-73357200D02*
X229074762Y-73404819D01*
X229074762Y-73404819D02*
X228979524Y-73404819D01*
X229789048Y-72500057D02*
X229836667Y-72452438D01*
X229836667Y-72452438D02*
X229931905Y-72404819D01*
X229931905Y-72404819D02*
X230170000Y-72404819D01*
X230170000Y-72404819D02*
X230265238Y-72452438D01*
X230265238Y-72452438D02*
X230312857Y-72500057D01*
X230312857Y-72500057D02*
X230360476Y-72595295D01*
X230360476Y-72595295D02*
X230360476Y-72690533D01*
X230360476Y-72690533D02*
X230312857Y-72833390D01*
X230312857Y-72833390D02*
X229741429Y-73404819D01*
X229741429Y-73404819D02*
X230360476Y-73404819D01*
X230741429Y-72500057D02*
X230789048Y-72452438D01*
X230789048Y-72452438D02*
X230884286Y-72404819D01*
X230884286Y-72404819D02*
X231122381Y-72404819D01*
X231122381Y-72404819D02*
X231217619Y-72452438D01*
X231217619Y-72452438D02*
X231265238Y-72500057D01*
X231265238Y-72500057D02*
X231312857Y-72595295D01*
X231312857Y-72595295D02*
X231312857Y-72690533D01*
X231312857Y-72690533D02*
X231265238Y-72833390D01*
X231265238Y-72833390D02*
X230693810Y-73404819D01*
X230693810Y-73404819D02*
X231312857Y-73404819D01*
D11*
X192738095Y-110457419D02*
X192738095Y-111266942D01*
X192738095Y-111266942D02*
X192785714Y-111362180D01*
X192785714Y-111362180D02*
X192833333Y-111409800D01*
X192833333Y-111409800D02*
X192928571Y-111457419D01*
X192928571Y-111457419D02*
X193119047Y-111457419D01*
X193119047Y-111457419D02*
X193214285Y-111409800D01*
X193214285Y-111409800D02*
X193261904Y-111362180D01*
X193261904Y-111362180D02*
X193309523Y-111266942D01*
X193309523Y-111266942D02*
X193309523Y-110457419D01*
X194214285Y-110790752D02*
X194214285Y-111457419D01*
X193976190Y-110409800D02*
X193738095Y-111124085D01*
X193738095Y-111124085D02*
X194357142Y-111124085D01*
D10*
X196925180Y-83676779D02*
X197925180Y-83676779D01*
X197925180Y-83676779D02*
X197210895Y-84010112D01*
X197210895Y-84010112D02*
X197925180Y-84343445D01*
X197925180Y-84343445D02*
X196925180Y-84343445D01*
X196925180Y-84819636D02*
X197925180Y-84819636D01*
X196972800Y-85248207D02*
X196925180Y-85391064D01*
X196925180Y-85391064D02*
X196925180Y-85629159D01*
X196925180Y-85629159D02*
X196972800Y-85724397D01*
X196972800Y-85724397D02*
X197020419Y-85772016D01*
X197020419Y-85772016D02*
X197115657Y-85819635D01*
X197115657Y-85819635D02*
X197210895Y-85819635D01*
X197210895Y-85819635D02*
X197306133Y-85772016D01*
X197306133Y-85772016D02*
X197353752Y-85724397D01*
X197353752Y-85724397D02*
X197401371Y-85629159D01*
X197401371Y-85629159D02*
X197448990Y-85438683D01*
X197448990Y-85438683D02*
X197496609Y-85343445D01*
X197496609Y-85343445D02*
X197544228Y-85295826D01*
X197544228Y-85295826D02*
X197639466Y-85248207D01*
X197639466Y-85248207D02*
X197734704Y-85248207D01*
X197734704Y-85248207D02*
X197829942Y-85295826D01*
X197829942Y-85295826D02*
X197877561Y-85343445D01*
X197877561Y-85343445D02*
X197925180Y-85438683D01*
X197925180Y-85438683D02*
X197925180Y-85676778D01*
X197925180Y-85676778D02*
X197877561Y-85819635D01*
X197925180Y-86438683D02*
X197925180Y-86629159D01*
X197925180Y-86629159D02*
X197877561Y-86724397D01*
X197877561Y-86724397D02*
X197782323Y-86819635D01*
X197782323Y-86819635D02*
X197591847Y-86867254D01*
X197591847Y-86867254D02*
X197258514Y-86867254D01*
X197258514Y-86867254D02*
X197068038Y-86819635D01*
X197068038Y-86819635D02*
X196972800Y-86724397D01*
X196972800Y-86724397D02*
X196925180Y-86629159D01*
X196925180Y-86629159D02*
X196925180Y-86438683D01*
X196925180Y-86438683D02*
X196972800Y-86343445D01*
X196972800Y-86343445D02*
X197068038Y-86248207D01*
X197068038Y-86248207D02*
X197258514Y-86200588D01*
X197258514Y-86200588D02*
X197591847Y-86200588D01*
X197591847Y-86200588D02*
X197782323Y-86248207D01*
X197782323Y-86248207D02*
X197877561Y-86343445D01*
X197877561Y-86343445D02*
X197925180Y-86438683D01*
X196925180Y-88756779D02*
X197925180Y-88756779D01*
X196925180Y-89804397D02*
X197401371Y-89471064D01*
X196925180Y-89232969D02*
X197925180Y-89232969D01*
X197925180Y-89232969D02*
X197925180Y-89613921D01*
X197925180Y-89613921D02*
X197877561Y-89709159D01*
X197877561Y-89709159D02*
X197829942Y-89756778D01*
X197829942Y-89756778D02*
X197734704Y-89804397D01*
X197734704Y-89804397D02*
X197591847Y-89804397D01*
X197591847Y-89804397D02*
X197496609Y-89756778D01*
X197496609Y-89756778D02*
X197448990Y-89709159D01*
X197448990Y-89709159D02*
X197401371Y-89613921D01*
X197401371Y-89613921D02*
X197401371Y-89232969D01*
X196829942Y-90899635D02*
X196877561Y-90804397D01*
X196877561Y-90804397D02*
X196972800Y-90709159D01*
X196972800Y-90709159D02*
X197115657Y-90566302D01*
X197115657Y-90566302D02*
X197163276Y-90471064D01*
X197163276Y-90471064D02*
X197163276Y-90375826D01*
X196925180Y-90423445D02*
X196972800Y-90328207D01*
X196972800Y-90328207D02*
X197068038Y-90232969D01*
X197068038Y-90232969D02*
X197258514Y-90185350D01*
X197258514Y-90185350D02*
X197591847Y-90185350D01*
X197591847Y-90185350D02*
X197782323Y-90232969D01*
X197782323Y-90232969D02*
X197877561Y-90328207D01*
X197877561Y-90328207D02*
X197925180Y-90423445D01*
X197925180Y-90423445D02*
X197925180Y-90613921D01*
X197925180Y-90613921D02*
X197877561Y-90709159D01*
X197877561Y-90709159D02*
X197782323Y-90804397D01*
X197782323Y-90804397D02*
X197591847Y-90852016D01*
X197591847Y-90852016D02*
X197258514Y-90852016D01*
X197258514Y-90852016D02*
X197068038Y-90804397D01*
X197068038Y-90804397D02*
X196972800Y-90709159D01*
X196972800Y-90709159D02*
X196925180Y-90613921D01*
X196925180Y-90613921D02*
X196925180Y-90423445D01*
X199512800Y-83629160D02*
X199465180Y-83772017D01*
X199465180Y-83772017D02*
X199465180Y-84010112D01*
X199465180Y-84010112D02*
X199512800Y-84105350D01*
X199512800Y-84105350D02*
X199560419Y-84152969D01*
X199560419Y-84152969D02*
X199655657Y-84200588D01*
X199655657Y-84200588D02*
X199750895Y-84200588D01*
X199750895Y-84200588D02*
X199846133Y-84152969D01*
X199846133Y-84152969D02*
X199893752Y-84105350D01*
X199893752Y-84105350D02*
X199941371Y-84010112D01*
X199941371Y-84010112D02*
X199988990Y-83819636D01*
X199988990Y-83819636D02*
X200036609Y-83724398D01*
X200036609Y-83724398D02*
X200084228Y-83676779D01*
X200084228Y-83676779D02*
X200179466Y-83629160D01*
X200179466Y-83629160D02*
X200274704Y-83629160D01*
X200274704Y-83629160D02*
X200369942Y-83676779D01*
X200369942Y-83676779D02*
X200417561Y-83724398D01*
X200417561Y-83724398D02*
X200465180Y-83819636D01*
X200465180Y-83819636D02*
X200465180Y-84057731D01*
X200465180Y-84057731D02*
X200417561Y-84200588D01*
X199560419Y-85200588D02*
X199512800Y-85152969D01*
X199512800Y-85152969D02*
X199465180Y-85010112D01*
X199465180Y-85010112D02*
X199465180Y-84914874D01*
X199465180Y-84914874D02*
X199512800Y-84772017D01*
X199512800Y-84772017D02*
X199608038Y-84676779D01*
X199608038Y-84676779D02*
X199703276Y-84629160D01*
X199703276Y-84629160D02*
X199893752Y-84581541D01*
X199893752Y-84581541D02*
X200036609Y-84581541D01*
X200036609Y-84581541D02*
X200227085Y-84629160D01*
X200227085Y-84629160D02*
X200322323Y-84676779D01*
X200322323Y-84676779D02*
X200417561Y-84772017D01*
X200417561Y-84772017D02*
X200465180Y-84914874D01*
X200465180Y-84914874D02*
X200465180Y-85010112D01*
X200465180Y-85010112D02*
X200417561Y-85152969D01*
X200417561Y-85152969D02*
X200369942Y-85200588D01*
X199465180Y-85629160D02*
X200465180Y-85629160D01*
X199465180Y-86200588D02*
X200036609Y-85772017D01*
X200465180Y-86200588D02*
X199893752Y-85629160D01*
X199465180Y-88756779D02*
X200465180Y-88756779D01*
X200465180Y-88756779D02*
X199750895Y-89090112D01*
X199750895Y-89090112D02*
X200465180Y-89423445D01*
X200465180Y-89423445D02*
X199465180Y-89423445D01*
X200465180Y-90090112D02*
X200465180Y-90280588D01*
X200465180Y-90280588D02*
X200417561Y-90375826D01*
X200417561Y-90375826D02*
X200322323Y-90471064D01*
X200322323Y-90471064D02*
X200131847Y-90518683D01*
X200131847Y-90518683D02*
X199798514Y-90518683D01*
X199798514Y-90518683D02*
X199608038Y-90471064D01*
X199608038Y-90471064D02*
X199512800Y-90375826D01*
X199512800Y-90375826D02*
X199465180Y-90280588D01*
X199465180Y-90280588D02*
X199465180Y-90090112D01*
X199465180Y-90090112D02*
X199512800Y-89994874D01*
X199512800Y-89994874D02*
X199608038Y-89899636D01*
X199608038Y-89899636D02*
X199798514Y-89852017D01*
X199798514Y-89852017D02*
X200131847Y-89852017D01*
X200131847Y-89852017D02*
X200322323Y-89899636D01*
X200322323Y-89899636D02*
X200417561Y-89994874D01*
X200417561Y-89994874D02*
X200465180Y-90090112D01*
X199512800Y-90899636D02*
X199465180Y-91042493D01*
X199465180Y-91042493D02*
X199465180Y-91280588D01*
X199465180Y-91280588D02*
X199512800Y-91375826D01*
X199512800Y-91375826D02*
X199560419Y-91423445D01*
X199560419Y-91423445D02*
X199655657Y-91471064D01*
X199655657Y-91471064D02*
X199750895Y-91471064D01*
X199750895Y-91471064D02*
X199846133Y-91423445D01*
X199846133Y-91423445D02*
X199893752Y-91375826D01*
X199893752Y-91375826D02*
X199941371Y-91280588D01*
X199941371Y-91280588D02*
X199988990Y-91090112D01*
X199988990Y-91090112D02*
X200036609Y-90994874D01*
X200036609Y-90994874D02*
X200084228Y-90947255D01*
X200084228Y-90947255D02*
X200179466Y-90899636D01*
X200179466Y-90899636D02*
X200274704Y-90899636D01*
X200274704Y-90899636D02*
X200369942Y-90947255D01*
X200369942Y-90947255D02*
X200417561Y-90994874D01*
X200417561Y-90994874D02*
X200465180Y-91090112D01*
X200465180Y-91090112D02*
X200465180Y-91328207D01*
X200465180Y-91328207D02*
X200417561Y-91471064D01*
X199465180Y-91899636D02*
X200465180Y-91899636D01*
X202100419Y-84248207D02*
X202052800Y-84200588D01*
X202052800Y-84200588D02*
X202005180Y-84057731D01*
X202005180Y-84057731D02*
X202005180Y-83962493D01*
X202005180Y-83962493D02*
X202052800Y-83819636D01*
X202052800Y-83819636D02*
X202148038Y-83724398D01*
X202148038Y-83724398D02*
X202243276Y-83676779D01*
X202243276Y-83676779D02*
X202433752Y-83629160D01*
X202433752Y-83629160D02*
X202576609Y-83629160D01*
X202576609Y-83629160D02*
X202767085Y-83676779D01*
X202767085Y-83676779D02*
X202862323Y-83724398D01*
X202862323Y-83724398D02*
X202957561Y-83819636D01*
X202957561Y-83819636D02*
X203005180Y-83962493D01*
X203005180Y-83962493D02*
X203005180Y-84057731D01*
X203005180Y-84057731D02*
X202957561Y-84200588D01*
X202957561Y-84200588D02*
X202909942Y-84248207D01*
X202528990Y-84676779D02*
X202528990Y-85010112D01*
X202005180Y-85152969D02*
X202005180Y-84676779D01*
X202005180Y-84676779D02*
X203005180Y-84676779D01*
X203005180Y-84676779D02*
X203005180Y-85152969D01*
X202386133Y-88613922D02*
X202433752Y-88661541D01*
X202433752Y-88661541D02*
X202481371Y-88756779D01*
X202481371Y-88756779D02*
X202386133Y-88947255D01*
X202386133Y-88947255D02*
X202433752Y-89042493D01*
X202433752Y-89042493D02*
X202481371Y-89090112D01*
X202100419Y-90042493D02*
X202052800Y-89994874D01*
X202052800Y-89994874D02*
X202005180Y-89852017D01*
X202005180Y-89852017D02*
X202005180Y-89756779D01*
X202005180Y-89756779D02*
X202052800Y-89613922D01*
X202052800Y-89613922D02*
X202148038Y-89518684D01*
X202148038Y-89518684D02*
X202243276Y-89471065D01*
X202243276Y-89471065D02*
X202433752Y-89423446D01*
X202433752Y-89423446D02*
X202576609Y-89423446D01*
X202576609Y-89423446D02*
X202767085Y-89471065D01*
X202767085Y-89471065D02*
X202862323Y-89518684D01*
X202862323Y-89518684D02*
X202957561Y-89613922D01*
X202957561Y-89613922D02*
X203005180Y-89756779D01*
X203005180Y-89756779D02*
X203005180Y-89852017D01*
X203005180Y-89852017D02*
X202957561Y-89994874D01*
X202957561Y-89994874D02*
X202909942Y-90042493D01*
X202052800Y-90423446D02*
X202005180Y-90566303D01*
X202005180Y-90566303D02*
X202005180Y-90804398D01*
X202005180Y-90804398D02*
X202052800Y-90899636D01*
X202052800Y-90899636D02*
X202100419Y-90947255D01*
X202100419Y-90947255D02*
X202195657Y-90994874D01*
X202195657Y-90994874D02*
X202290895Y-90994874D01*
X202290895Y-90994874D02*
X202386133Y-90947255D01*
X202386133Y-90947255D02*
X202433752Y-90899636D01*
X202433752Y-90899636D02*
X202481371Y-90804398D01*
X202481371Y-90804398D02*
X202528990Y-90613922D01*
X202528990Y-90613922D02*
X202576609Y-90518684D01*
X202576609Y-90518684D02*
X202624228Y-90471065D01*
X202624228Y-90471065D02*
X202719466Y-90423446D01*
X202719466Y-90423446D02*
X202814704Y-90423446D01*
X202814704Y-90423446D02*
X202909942Y-90471065D01*
X202909942Y-90471065D02*
X202957561Y-90518684D01*
X202957561Y-90518684D02*
X203005180Y-90613922D01*
X203005180Y-90613922D02*
X203005180Y-90852017D01*
X203005180Y-90852017D02*
X202957561Y-90994874D01*
X202005180Y-91423446D02*
X203005180Y-91423446D01*
X203005180Y-91423446D02*
X202005180Y-91994874D01*
X202005180Y-91994874D02*
X203005180Y-91994874D01*
X205497561Y-84200588D02*
X205545180Y-84105350D01*
X205545180Y-84105350D02*
X205545180Y-83962493D01*
X205545180Y-83962493D02*
X205497561Y-83819636D01*
X205497561Y-83819636D02*
X205402323Y-83724398D01*
X205402323Y-83724398D02*
X205307085Y-83676779D01*
X205307085Y-83676779D02*
X205116609Y-83629160D01*
X205116609Y-83629160D02*
X204973752Y-83629160D01*
X204973752Y-83629160D02*
X204783276Y-83676779D01*
X204783276Y-83676779D02*
X204688038Y-83724398D01*
X204688038Y-83724398D02*
X204592800Y-83819636D01*
X204592800Y-83819636D02*
X204545180Y-83962493D01*
X204545180Y-83962493D02*
X204545180Y-84057731D01*
X204545180Y-84057731D02*
X204592800Y-84200588D01*
X204592800Y-84200588D02*
X204640419Y-84248207D01*
X204640419Y-84248207D02*
X204973752Y-84248207D01*
X204973752Y-84248207D02*
X204973752Y-84057731D01*
X204545180Y-84676779D02*
X205545180Y-84676779D01*
X205545180Y-84676779D02*
X204545180Y-85248207D01*
X204545180Y-85248207D02*
X205545180Y-85248207D01*
X204545180Y-85724398D02*
X205545180Y-85724398D01*
X205545180Y-85724398D02*
X205545180Y-85962493D01*
X205545180Y-85962493D02*
X205497561Y-86105350D01*
X205497561Y-86105350D02*
X205402323Y-86200588D01*
X205402323Y-86200588D02*
X205307085Y-86248207D01*
X205307085Y-86248207D02*
X205116609Y-86295826D01*
X205116609Y-86295826D02*
X204973752Y-86295826D01*
X204973752Y-86295826D02*
X204783276Y-86248207D01*
X204783276Y-86248207D02*
X204688038Y-86200588D01*
X204688038Y-86200588D02*
X204592800Y-86105350D01*
X204592800Y-86105350D02*
X204545180Y-85962493D01*
X204545180Y-85962493D02*
X204545180Y-85724398D01*
X205545180Y-88613922D02*
X204545180Y-88947255D01*
X204545180Y-88947255D02*
X205545180Y-89280588D01*
X204640419Y-90185350D02*
X204592800Y-90137731D01*
X204592800Y-90137731D02*
X204545180Y-89994874D01*
X204545180Y-89994874D02*
X204545180Y-89899636D01*
X204545180Y-89899636D02*
X204592800Y-89756779D01*
X204592800Y-89756779D02*
X204688038Y-89661541D01*
X204688038Y-89661541D02*
X204783276Y-89613922D01*
X204783276Y-89613922D02*
X204973752Y-89566303D01*
X204973752Y-89566303D02*
X205116609Y-89566303D01*
X205116609Y-89566303D02*
X205307085Y-89613922D01*
X205307085Y-89613922D02*
X205402323Y-89661541D01*
X205402323Y-89661541D02*
X205497561Y-89756779D01*
X205497561Y-89756779D02*
X205545180Y-89899636D01*
X205545180Y-89899636D02*
X205545180Y-89994874D01*
X205545180Y-89994874D02*
X205497561Y-90137731D01*
X205497561Y-90137731D02*
X205449942Y-90185350D01*
X204640419Y-91185350D02*
X204592800Y-91137731D01*
X204592800Y-91137731D02*
X204545180Y-90994874D01*
X204545180Y-90994874D02*
X204545180Y-90899636D01*
X204545180Y-90899636D02*
X204592800Y-90756779D01*
X204592800Y-90756779D02*
X204688038Y-90661541D01*
X204688038Y-90661541D02*
X204783276Y-90613922D01*
X204783276Y-90613922D02*
X204973752Y-90566303D01*
X204973752Y-90566303D02*
X205116609Y-90566303D01*
X205116609Y-90566303D02*
X205307085Y-90613922D01*
X205307085Y-90613922D02*
X205402323Y-90661541D01*
X205402323Y-90661541D02*
X205497561Y-90756779D01*
X205497561Y-90756779D02*
X205545180Y-90899636D01*
X205545180Y-90899636D02*
X205545180Y-90994874D01*
X205545180Y-90994874D02*
X205497561Y-91137731D01*
X205497561Y-91137731D02*
X205449942Y-91185350D01*
X232440476Y-120904819D02*
X232440476Y-121619104D01*
X232440476Y-121619104D02*
X232392857Y-121761961D01*
X232392857Y-121761961D02*
X232297619Y-121857200D01*
X232297619Y-121857200D02*
X232154762Y-121904819D01*
X232154762Y-121904819D02*
X232059524Y-121904819D01*
X233440476Y-121904819D02*
X232869048Y-121904819D01*
X233154762Y-121904819D02*
X233154762Y-120904819D01*
X233154762Y-120904819D02*
X233059524Y-121047676D01*
X233059524Y-121047676D02*
X232964286Y-121142914D01*
X232964286Y-121142914D02*
X232869048Y-121190533D01*
X233773810Y-120904819D02*
X234440476Y-120904819D01*
X234440476Y-120904819D02*
X234011905Y-121904819D01*
X181283333Y-58774819D02*
X180950000Y-58298628D01*
X180711905Y-58774819D02*
X180711905Y-57774819D01*
X180711905Y-57774819D02*
X181092857Y-57774819D01*
X181092857Y-57774819D02*
X181188095Y-57822438D01*
X181188095Y-57822438D02*
X181235714Y-57870057D01*
X181235714Y-57870057D02*
X181283333Y-57965295D01*
X181283333Y-57965295D02*
X181283333Y-58108152D01*
X181283333Y-58108152D02*
X181235714Y-58203390D01*
X181235714Y-58203390D02*
X181188095Y-58251009D01*
X181188095Y-58251009D02*
X181092857Y-58298628D01*
X181092857Y-58298628D02*
X180711905Y-58298628D01*
X181664286Y-57870057D02*
X181711905Y-57822438D01*
X181711905Y-57822438D02*
X181807143Y-57774819D01*
X181807143Y-57774819D02*
X182045238Y-57774819D01*
X182045238Y-57774819D02*
X182140476Y-57822438D01*
X182140476Y-57822438D02*
X182188095Y-57870057D01*
X182188095Y-57870057D02*
X182235714Y-57965295D01*
X182235714Y-57965295D02*
X182235714Y-58060533D01*
X182235714Y-58060533D02*
X182188095Y-58203390D01*
X182188095Y-58203390D02*
X181616667Y-58774819D01*
X181616667Y-58774819D02*
X182235714Y-58774819D01*
X68976666Y-82531009D02*
X68643333Y-82531009D01*
X68643333Y-83054819D02*
X68643333Y-82054819D01*
X68643333Y-82054819D02*
X69119523Y-82054819D01*
X70024285Y-83054819D02*
X69452857Y-83054819D01*
X69738571Y-83054819D02*
X69738571Y-82054819D01*
X69738571Y-82054819D02*
X69643333Y-82197676D01*
X69643333Y-82197676D02*
X69548095Y-82292914D01*
X69548095Y-82292914D02*
X69452857Y-82340533D01*
X164916666Y-83904819D02*
X164916666Y-84619104D01*
X164916666Y-84619104D02*
X164869047Y-84761961D01*
X164869047Y-84761961D02*
X164773809Y-84857200D01*
X164773809Y-84857200D02*
X164630952Y-84904819D01*
X164630952Y-84904819D02*
X164535714Y-84904819D01*
X165535714Y-84333390D02*
X165440476Y-84285771D01*
X165440476Y-84285771D02*
X165392857Y-84238152D01*
X165392857Y-84238152D02*
X165345238Y-84142914D01*
X165345238Y-84142914D02*
X165345238Y-84095295D01*
X165345238Y-84095295D02*
X165392857Y-84000057D01*
X165392857Y-84000057D02*
X165440476Y-83952438D01*
X165440476Y-83952438D02*
X165535714Y-83904819D01*
X165535714Y-83904819D02*
X165726190Y-83904819D01*
X165726190Y-83904819D02*
X165821428Y-83952438D01*
X165821428Y-83952438D02*
X165869047Y-84000057D01*
X165869047Y-84000057D02*
X165916666Y-84095295D01*
X165916666Y-84095295D02*
X165916666Y-84142914D01*
X165916666Y-84142914D02*
X165869047Y-84238152D01*
X165869047Y-84238152D02*
X165821428Y-84285771D01*
X165821428Y-84285771D02*
X165726190Y-84333390D01*
X165726190Y-84333390D02*
X165535714Y-84333390D01*
X165535714Y-84333390D02*
X165440476Y-84381009D01*
X165440476Y-84381009D02*
X165392857Y-84428628D01*
X165392857Y-84428628D02*
X165345238Y-84523866D01*
X165345238Y-84523866D02*
X165345238Y-84714342D01*
X165345238Y-84714342D02*
X165392857Y-84809580D01*
X165392857Y-84809580D02*
X165440476Y-84857200D01*
X165440476Y-84857200D02*
X165535714Y-84904819D01*
X165535714Y-84904819D02*
X165726190Y-84904819D01*
X165726190Y-84904819D02*
X165821428Y-84857200D01*
X165821428Y-84857200D02*
X165869047Y-84809580D01*
X165869047Y-84809580D02*
X165916666Y-84714342D01*
X165916666Y-84714342D02*
X165916666Y-84523866D01*
X165916666Y-84523866D02*
X165869047Y-84428628D01*
X165869047Y-84428628D02*
X165821428Y-84381009D01*
X165821428Y-84381009D02*
X165726190Y-84333390D01*
X181783333Y-62774819D02*
X181450000Y-62298628D01*
X181211905Y-62774819D02*
X181211905Y-61774819D01*
X181211905Y-61774819D02*
X181592857Y-61774819D01*
X181592857Y-61774819D02*
X181688095Y-61822438D01*
X181688095Y-61822438D02*
X181735714Y-61870057D01*
X181735714Y-61870057D02*
X181783333Y-61965295D01*
X181783333Y-61965295D02*
X181783333Y-62108152D01*
X181783333Y-62108152D02*
X181735714Y-62203390D01*
X181735714Y-62203390D02*
X181688095Y-62251009D01*
X181688095Y-62251009D02*
X181592857Y-62298628D01*
X181592857Y-62298628D02*
X181211905Y-62298628D01*
X182116667Y-61774819D02*
X182735714Y-61774819D01*
X182735714Y-61774819D02*
X182402381Y-62155771D01*
X182402381Y-62155771D02*
X182545238Y-62155771D01*
X182545238Y-62155771D02*
X182640476Y-62203390D01*
X182640476Y-62203390D02*
X182688095Y-62251009D01*
X182688095Y-62251009D02*
X182735714Y-62346247D01*
X182735714Y-62346247D02*
X182735714Y-62584342D01*
X182735714Y-62584342D02*
X182688095Y-62679580D01*
X182688095Y-62679580D02*
X182640476Y-62727200D01*
X182640476Y-62727200D02*
X182545238Y-62774819D01*
X182545238Y-62774819D02*
X182259524Y-62774819D01*
X182259524Y-62774819D02*
X182164286Y-62727200D01*
X182164286Y-62727200D02*
X182116667Y-62679580D01*
X242089104Y-67514285D02*
X242089104Y-67038095D01*
X242374819Y-67609523D02*
X241374819Y-67276190D01*
X241374819Y-67276190D02*
X242374819Y-66942857D01*
X241708152Y-66180952D02*
X242374819Y-66180952D01*
X241327200Y-66419047D02*
X242041485Y-66657142D01*
X242041485Y-66657142D02*
X242041485Y-66038095D01*
X70666666Y-52044819D02*
X70666666Y-52759104D01*
X70666666Y-52759104D02*
X70619047Y-52901961D01*
X70619047Y-52901961D02*
X70523809Y-52997200D01*
X70523809Y-52997200D02*
X70380952Y-53044819D01*
X70380952Y-53044819D02*
X70285714Y-53044819D01*
X71047619Y-52044819D02*
X71714285Y-52044819D01*
X71714285Y-52044819D02*
X71285714Y-53044819D01*
X82065905Y-95197819D02*
X82065905Y-94197819D01*
X82065905Y-94197819D02*
X82304000Y-94197819D01*
X82304000Y-94197819D02*
X82446857Y-94245438D01*
X82446857Y-94245438D02*
X82542095Y-94340676D01*
X82542095Y-94340676D02*
X82589714Y-94435914D01*
X82589714Y-94435914D02*
X82637333Y-94626390D01*
X82637333Y-94626390D02*
X82637333Y-94769247D01*
X82637333Y-94769247D02*
X82589714Y-94959723D01*
X82589714Y-94959723D02*
X82542095Y-95054961D01*
X82542095Y-95054961D02*
X82446857Y-95150200D01*
X82446857Y-95150200D02*
X82304000Y-95197819D01*
X82304000Y-95197819D02*
X82065905Y-95197819D01*
X83018286Y-94293057D02*
X83065905Y-94245438D01*
X83065905Y-94245438D02*
X83161143Y-94197819D01*
X83161143Y-94197819D02*
X83399238Y-94197819D01*
X83399238Y-94197819D02*
X83494476Y-94245438D01*
X83494476Y-94245438D02*
X83542095Y-94293057D01*
X83542095Y-94293057D02*
X83589714Y-94388295D01*
X83589714Y-94388295D02*
X83589714Y-94483533D01*
X83589714Y-94483533D02*
X83542095Y-94626390D01*
X83542095Y-94626390D02*
X82970667Y-95197819D01*
X82970667Y-95197819D02*
X83589714Y-95197819D01*
X73624476Y-120739056D02*
X73624476Y-121453341D01*
X73624476Y-121453341D02*
X73576857Y-121596198D01*
X73576857Y-121596198D02*
X73481619Y-121691437D01*
X73481619Y-121691437D02*
X73338762Y-121739056D01*
X73338762Y-121739056D02*
X73243524Y-121739056D01*
X74624476Y-121739056D02*
X74053048Y-121739056D01*
X74338762Y-121739056D02*
X74338762Y-120739056D01*
X74338762Y-120739056D02*
X74243524Y-120881913D01*
X74243524Y-120881913D02*
X74148286Y-120977151D01*
X74148286Y-120977151D02*
X74053048Y-121024770D01*
X75576857Y-121739056D02*
X75005429Y-121739056D01*
X75291143Y-121739056D02*
X75291143Y-120739056D01*
X75291143Y-120739056D02*
X75195905Y-120881913D01*
X75195905Y-120881913D02*
X75100667Y-120977151D01*
X75100667Y-120977151D02*
X75005429Y-121024770D01*
X109940476Y-90404819D02*
X109940476Y-91119104D01*
X109940476Y-91119104D02*
X109892857Y-91261961D01*
X109892857Y-91261961D02*
X109797619Y-91357200D01*
X109797619Y-91357200D02*
X109654762Y-91404819D01*
X109654762Y-91404819D02*
X109559524Y-91404819D01*
X110940476Y-91404819D02*
X110369048Y-91404819D01*
X110654762Y-91404819D02*
X110654762Y-90404819D01*
X110654762Y-90404819D02*
X110559524Y-90547676D01*
X110559524Y-90547676D02*
X110464286Y-90642914D01*
X110464286Y-90642914D02*
X110369048Y-90690533D01*
X111511905Y-90833390D02*
X111416667Y-90785771D01*
X111416667Y-90785771D02*
X111369048Y-90738152D01*
X111369048Y-90738152D02*
X111321429Y-90642914D01*
X111321429Y-90642914D02*
X111321429Y-90595295D01*
X111321429Y-90595295D02*
X111369048Y-90500057D01*
X111369048Y-90500057D02*
X111416667Y-90452438D01*
X111416667Y-90452438D02*
X111511905Y-90404819D01*
X111511905Y-90404819D02*
X111702381Y-90404819D01*
X111702381Y-90404819D02*
X111797619Y-90452438D01*
X111797619Y-90452438D02*
X111845238Y-90500057D01*
X111845238Y-90500057D02*
X111892857Y-90595295D01*
X111892857Y-90595295D02*
X111892857Y-90642914D01*
X111892857Y-90642914D02*
X111845238Y-90738152D01*
X111845238Y-90738152D02*
X111797619Y-90785771D01*
X111797619Y-90785771D02*
X111702381Y-90833390D01*
X111702381Y-90833390D02*
X111511905Y-90833390D01*
X111511905Y-90833390D02*
X111416667Y-90881009D01*
X111416667Y-90881009D02*
X111369048Y-90928628D01*
X111369048Y-90928628D02*
X111321429Y-91023866D01*
X111321429Y-91023866D02*
X111321429Y-91214342D01*
X111321429Y-91214342D02*
X111369048Y-91309580D01*
X111369048Y-91309580D02*
X111416667Y-91357200D01*
X111416667Y-91357200D02*
X111511905Y-91404819D01*
X111511905Y-91404819D02*
X111702381Y-91404819D01*
X111702381Y-91404819D02*
X111797619Y-91357200D01*
X111797619Y-91357200D02*
X111845238Y-91309580D01*
X111845238Y-91309580D02*
X111892857Y-91214342D01*
X111892857Y-91214342D02*
X111892857Y-91023866D01*
X111892857Y-91023866D02*
X111845238Y-90928628D01*
X111845238Y-90928628D02*
X111797619Y-90881009D01*
X111797619Y-90881009D02*
X111702381Y-90833390D01*
X97940476Y-90404819D02*
X97940476Y-91119104D01*
X97940476Y-91119104D02*
X97892857Y-91261961D01*
X97892857Y-91261961D02*
X97797619Y-91357200D01*
X97797619Y-91357200D02*
X97654762Y-91404819D01*
X97654762Y-91404819D02*
X97559524Y-91404819D01*
X98940476Y-91404819D02*
X98369048Y-91404819D01*
X98654762Y-91404819D02*
X98654762Y-90404819D01*
X98654762Y-90404819D02*
X98559524Y-90547676D01*
X98559524Y-90547676D02*
X98464286Y-90642914D01*
X98464286Y-90642914D02*
X98369048Y-90690533D01*
X99797619Y-90738152D02*
X99797619Y-91404819D01*
X99559524Y-90357200D02*
X99321429Y-91071485D01*
X99321429Y-91071485D02*
X99940476Y-91071485D01*
X214666666Y-53624819D02*
X214666666Y-54339104D01*
X214666666Y-54339104D02*
X214619047Y-54481961D01*
X214619047Y-54481961D02*
X214523809Y-54577200D01*
X214523809Y-54577200D02*
X214380952Y-54624819D01*
X214380952Y-54624819D02*
X214285714Y-54624819D01*
X215047619Y-53624819D02*
X215666666Y-53624819D01*
X215666666Y-53624819D02*
X215333333Y-54005771D01*
X215333333Y-54005771D02*
X215476190Y-54005771D01*
X215476190Y-54005771D02*
X215571428Y-54053390D01*
X215571428Y-54053390D02*
X215619047Y-54101009D01*
X215619047Y-54101009D02*
X215666666Y-54196247D01*
X215666666Y-54196247D02*
X215666666Y-54434342D01*
X215666666Y-54434342D02*
X215619047Y-54529580D01*
X215619047Y-54529580D02*
X215571428Y-54577200D01*
X215571428Y-54577200D02*
X215476190Y-54624819D01*
X215476190Y-54624819D02*
X215190476Y-54624819D01*
X215190476Y-54624819D02*
X215095238Y-54577200D01*
X215095238Y-54577200D02*
X215047619Y-54529580D01*
X60754819Y-92809523D02*
X61469104Y-92809523D01*
X61469104Y-92809523D02*
X61611961Y-92857142D01*
X61611961Y-92857142D02*
X61707200Y-92952380D01*
X61707200Y-92952380D02*
X61754819Y-93095237D01*
X61754819Y-93095237D02*
X61754819Y-93190475D01*
X61754819Y-91809523D02*
X61754819Y-92380951D01*
X61754819Y-92095237D02*
X60754819Y-92095237D01*
X60754819Y-92095237D02*
X60897676Y-92190475D01*
X60897676Y-92190475D02*
X60992914Y-92285713D01*
X60992914Y-92285713D02*
X61040533Y-92380951D01*
X60754819Y-90904761D02*
X60754819Y-91380951D01*
X60754819Y-91380951D02*
X61231009Y-91428570D01*
X61231009Y-91428570D02*
X61183390Y-91380951D01*
X61183390Y-91380951D02*
X61135771Y-91285713D01*
X61135771Y-91285713D02*
X61135771Y-91047618D01*
X61135771Y-91047618D02*
X61183390Y-90952380D01*
X61183390Y-90952380D02*
X61231009Y-90904761D01*
X61231009Y-90904761D02*
X61326247Y-90857142D01*
X61326247Y-90857142D02*
X61564342Y-90857142D01*
X61564342Y-90857142D02*
X61659580Y-90904761D01*
X61659580Y-90904761D02*
X61707200Y-90952380D01*
X61707200Y-90952380D02*
X61754819Y-91047618D01*
X61754819Y-91047618D02*
X61754819Y-91285713D01*
X61754819Y-91285713D02*
X61707200Y-91380951D01*
X61707200Y-91380951D02*
X61659580Y-91428570D01*
X81883333Y-91634819D02*
X81550000Y-91158628D01*
X81311905Y-91634819D02*
X81311905Y-90634819D01*
X81311905Y-90634819D02*
X81692857Y-90634819D01*
X81692857Y-90634819D02*
X81788095Y-90682438D01*
X81788095Y-90682438D02*
X81835714Y-90730057D01*
X81835714Y-90730057D02*
X81883333Y-90825295D01*
X81883333Y-90825295D02*
X81883333Y-90968152D01*
X81883333Y-90968152D02*
X81835714Y-91063390D01*
X81835714Y-91063390D02*
X81788095Y-91111009D01*
X81788095Y-91111009D02*
X81692857Y-91158628D01*
X81692857Y-91158628D02*
X81311905Y-91158628D01*
X82835714Y-91634819D02*
X82264286Y-91634819D01*
X82550000Y-91634819D02*
X82550000Y-90634819D01*
X82550000Y-90634819D02*
X82454762Y-90777676D01*
X82454762Y-90777676D02*
X82359524Y-90872914D01*
X82359524Y-90872914D02*
X82264286Y-90920533D01*
X220666666Y-120624819D02*
X220666666Y-121339104D01*
X220666666Y-121339104D02*
X220619047Y-121481961D01*
X220619047Y-121481961D02*
X220523809Y-121577200D01*
X220523809Y-121577200D02*
X220380952Y-121624819D01*
X220380952Y-121624819D02*
X220285714Y-121624819D01*
X221571428Y-120958152D02*
X221571428Y-121624819D01*
X221333333Y-120577200D02*
X221095238Y-121291485D01*
X221095238Y-121291485D02*
X221714285Y-121291485D01*
X217549104Y-113064285D02*
X217549104Y-112588095D01*
X217834819Y-113159523D02*
X216834819Y-112826190D01*
X216834819Y-112826190D02*
X217834819Y-112492857D01*
X216834819Y-111683333D02*
X216834819Y-112159523D01*
X216834819Y-112159523D02*
X217311009Y-112207142D01*
X217311009Y-112207142D02*
X217263390Y-112159523D01*
X217263390Y-112159523D02*
X217215771Y-112064285D01*
X217215771Y-112064285D02*
X217215771Y-111826190D01*
X217215771Y-111826190D02*
X217263390Y-111730952D01*
X217263390Y-111730952D02*
X217311009Y-111683333D01*
X217311009Y-111683333D02*
X217406247Y-111635714D01*
X217406247Y-111635714D02*
X217644342Y-111635714D01*
X217644342Y-111635714D02*
X217739580Y-111683333D01*
X217739580Y-111683333D02*
X217787200Y-111730952D01*
X217787200Y-111730952D02*
X217834819Y-111826190D01*
X217834819Y-111826190D02*
X217834819Y-112064285D01*
X217834819Y-112064285D02*
X217787200Y-112159523D01*
X217787200Y-112159523D02*
X217739580Y-112207142D01*
X164916666Y-97404819D02*
X164916666Y-98119104D01*
X164916666Y-98119104D02*
X164869047Y-98261961D01*
X164869047Y-98261961D02*
X164773809Y-98357200D01*
X164773809Y-98357200D02*
X164630952Y-98404819D01*
X164630952Y-98404819D02*
X164535714Y-98404819D01*
X165916666Y-98404819D02*
X165345238Y-98404819D01*
X165630952Y-98404819D02*
X165630952Y-97404819D01*
X165630952Y-97404819D02*
X165535714Y-97547676D01*
X165535714Y-97547676D02*
X165440476Y-97642914D01*
X165440476Y-97642914D02*
X165345238Y-97690533D01*
X59440476Y-122904819D02*
X59440476Y-123619104D01*
X59440476Y-123619104D02*
X59392857Y-123761961D01*
X59392857Y-123761961D02*
X59297619Y-123857200D01*
X59297619Y-123857200D02*
X59154762Y-123904819D01*
X59154762Y-123904819D02*
X59059524Y-123904819D01*
X59869048Y-123000057D02*
X59916667Y-122952438D01*
X59916667Y-122952438D02*
X60011905Y-122904819D01*
X60011905Y-122904819D02*
X60250000Y-122904819D01*
X60250000Y-122904819D02*
X60345238Y-122952438D01*
X60345238Y-122952438D02*
X60392857Y-123000057D01*
X60392857Y-123000057D02*
X60440476Y-123095295D01*
X60440476Y-123095295D02*
X60440476Y-123190533D01*
X60440476Y-123190533D02*
X60392857Y-123333390D01*
X60392857Y-123333390D02*
X59821429Y-123904819D01*
X59821429Y-123904819D02*
X60440476Y-123904819D01*
X61392857Y-123904819D02*
X60821429Y-123904819D01*
X61107143Y-123904819D02*
X61107143Y-122904819D01*
X61107143Y-122904819D02*
X61011905Y-123047676D01*
X61011905Y-123047676D02*
X60916667Y-123142914D01*
X60916667Y-123142914D02*
X60821429Y-123190533D01*
X141994819Y-80531904D02*
X142804342Y-80531904D01*
X142804342Y-80531904D02*
X142899580Y-80484285D01*
X142899580Y-80484285D02*
X142947200Y-80436666D01*
X142947200Y-80436666D02*
X142994819Y-80341428D01*
X142994819Y-80341428D02*
X142994819Y-80150952D01*
X142994819Y-80150952D02*
X142947200Y-80055714D01*
X142947200Y-80055714D02*
X142899580Y-80008095D01*
X142899580Y-80008095D02*
X142804342Y-79960476D01*
X142804342Y-79960476D02*
X141994819Y-79960476D01*
X142994819Y-78960476D02*
X142994819Y-79531904D01*
X142994819Y-79246190D02*
X141994819Y-79246190D01*
X141994819Y-79246190D02*
X142137676Y-79341428D01*
X142137676Y-79341428D02*
X142232914Y-79436666D01*
X142232914Y-79436666D02*
X142280533Y-79531904D01*
X122674819Y-83214761D02*
X121674819Y-83214761D01*
X122674819Y-82738571D02*
X121674819Y-82738571D01*
X121674819Y-82738571D02*
X122674819Y-82167143D01*
X122674819Y-82167143D02*
X121674819Y-82167143D01*
X121674819Y-81833809D02*
X121674819Y-81262381D01*
X122674819Y-81548095D02*
X121674819Y-81548095D01*
X124929104Y-83548094D02*
X124929104Y-83071904D01*
X125214819Y-83643332D02*
X124214819Y-83309999D01*
X124214819Y-83309999D02*
X125214819Y-82976666D01*
X125214819Y-82643332D02*
X124214819Y-82643332D01*
X124214819Y-82643332D02*
X124214819Y-82405237D01*
X124214819Y-82405237D02*
X124262438Y-82262380D01*
X124262438Y-82262380D02*
X124357676Y-82167142D01*
X124357676Y-82167142D02*
X124452914Y-82119523D01*
X124452914Y-82119523D02*
X124643390Y-82071904D01*
X124643390Y-82071904D02*
X124786247Y-82071904D01*
X124786247Y-82071904D02*
X124976723Y-82119523D01*
X124976723Y-82119523D02*
X125071961Y-82167142D01*
X125071961Y-82167142D02*
X125167200Y-82262380D01*
X125167200Y-82262380D02*
X125214819Y-82405237D01*
X125214819Y-82405237D02*
X125214819Y-82643332D01*
X125214819Y-81643332D02*
X124214819Y-81643332D01*
X124214819Y-81643332D02*
X124214819Y-81405237D01*
X124214819Y-81405237D02*
X124262438Y-81262380D01*
X124262438Y-81262380D02*
X124357676Y-81167142D01*
X124357676Y-81167142D02*
X124452914Y-81119523D01*
X124452914Y-81119523D02*
X124643390Y-81071904D01*
X124643390Y-81071904D02*
X124786247Y-81071904D01*
X124786247Y-81071904D02*
X124976723Y-81119523D01*
X124976723Y-81119523D02*
X125071961Y-81167142D01*
X125071961Y-81167142D02*
X125167200Y-81262380D01*
X125167200Y-81262380D02*
X125214819Y-81405237D01*
X125214819Y-81405237D02*
X125214819Y-81643332D01*
X126754819Y-83548094D02*
X127754819Y-82881428D01*
X126754819Y-82881428D02*
X127754819Y-83548094D01*
X127659580Y-81929047D02*
X127707200Y-81976666D01*
X127707200Y-81976666D02*
X127754819Y-82119523D01*
X127754819Y-82119523D02*
X127754819Y-82214761D01*
X127754819Y-82214761D02*
X127707200Y-82357618D01*
X127707200Y-82357618D02*
X127611961Y-82452856D01*
X127611961Y-82452856D02*
X127516723Y-82500475D01*
X127516723Y-82500475D02*
X127326247Y-82548094D01*
X127326247Y-82548094D02*
X127183390Y-82548094D01*
X127183390Y-82548094D02*
X126992914Y-82500475D01*
X126992914Y-82500475D02*
X126897676Y-82452856D01*
X126897676Y-82452856D02*
X126802438Y-82357618D01*
X126802438Y-82357618D02*
X126754819Y-82214761D01*
X126754819Y-82214761D02*
X126754819Y-82119523D01*
X126754819Y-82119523D02*
X126802438Y-81976666D01*
X126802438Y-81976666D02*
X126850057Y-81929047D01*
X127754819Y-81024285D02*
X127754819Y-81500475D01*
X127754819Y-81500475D02*
X126754819Y-81500475D01*
X129294819Y-83571904D02*
X130294819Y-82905238D01*
X129294819Y-82905238D02*
X130294819Y-83571904D01*
X130294819Y-82524285D02*
X129294819Y-82524285D01*
X129294819Y-82524285D02*
X129294819Y-82286190D01*
X129294819Y-82286190D02*
X129342438Y-82143333D01*
X129342438Y-82143333D02*
X129437676Y-82048095D01*
X129437676Y-82048095D02*
X129532914Y-82000476D01*
X129532914Y-82000476D02*
X129723390Y-81952857D01*
X129723390Y-81952857D02*
X129866247Y-81952857D01*
X129866247Y-81952857D02*
X130056723Y-82000476D01*
X130056723Y-82000476D02*
X130151961Y-82048095D01*
X130151961Y-82048095D02*
X130247200Y-82143333D01*
X130247200Y-82143333D02*
X130294819Y-82286190D01*
X130294819Y-82286190D02*
X130294819Y-82524285D01*
X130009104Y-81571904D02*
X130009104Y-81095714D01*
X130294819Y-81667142D02*
X129294819Y-81333809D01*
X129294819Y-81333809D02*
X130294819Y-81000476D01*
X132787200Y-83524285D02*
X132834819Y-83381428D01*
X132834819Y-83381428D02*
X132834819Y-83143333D01*
X132834819Y-83143333D02*
X132787200Y-83048095D01*
X132787200Y-83048095D02*
X132739580Y-83000476D01*
X132739580Y-83000476D02*
X132644342Y-82952857D01*
X132644342Y-82952857D02*
X132549104Y-82952857D01*
X132549104Y-82952857D02*
X132453866Y-83000476D01*
X132453866Y-83000476D02*
X132406247Y-83048095D01*
X132406247Y-83048095D02*
X132358628Y-83143333D01*
X132358628Y-83143333D02*
X132311009Y-83333809D01*
X132311009Y-83333809D02*
X132263390Y-83429047D01*
X132263390Y-83429047D02*
X132215771Y-83476666D01*
X132215771Y-83476666D02*
X132120533Y-83524285D01*
X132120533Y-83524285D02*
X132025295Y-83524285D01*
X132025295Y-83524285D02*
X131930057Y-83476666D01*
X131930057Y-83476666D02*
X131882438Y-83429047D01*
X131882438Y-83429047D02*
X131834819Y-83333809D01*
X131834819Y-83333809D02*
X131834819Y-83095714D01*
X131834819Y-83095714D02*
X131882438Y-82952857D01*
X132834819Y-82524285D02*
X131834819Y-82524285D01*
X131834819Y-82524285D02*
X131834819Y-82286190D01*
X131834819Y-82286190D02*
X131882438Y-82143333D01*
X131882438Y-82143333D02*
X131977676Y-82048095D01*
X131977676Y-82048095D02*
X132072914Y-82000476D01*
X132072914Y-82000476D02*
X132263390Y-81952857D01*
X132263390Y-81952857D02*
X132406247Y-81952857D01*
X132406247Y-81952857D02*
X132596723Y-82000476D01*
X132596723Y-82000476D02*
X132691961Y-82048095D01*
X132691961Y-82048095D02*
X132787200Y-82143333D01*
X132787200Y-82143333D02*
X132834819Y-82286190D01*
X132834819Y-82286190D02*
X132834819Y-82524285D01*
X132549104Y-81571904D02*
X132549104Y-81095714D01*
X132834819Y-81667142D02*
X131834819Y-81333809D01*
X131834819Y-81333809D02*
X132834819Y-81000476D01*
X135327200Y-83500475D02*
X135374819Y-83357618D01*
X135374819Y-83357618D02*
X135374819Y-83119523D01*
X135374819Y-83119523D02*
X135327200Y-83024285D01*
X135327200Y-83024285D02*
X135279580Y-82976666D01*
X135279580Y-82976666D02*
X135184342Y-82929047D01*
X135184342Y-82929047D02*
X135089104Y-82929047D01*
X135089104Y-82929047D02*
X134993866Y-82976666D01*
X134993866Y-82976666D02*
X134946247Y-83024285D01*
X134946247Y-83024285D02*
X134898628Y-83119523D01*
X134898628Y-83119523D02*
X134851009Y-83309999D01*
X134851009Y-83309999D02*
X134803390Y-83405237D01*
X134803390Y-83405237D02*
X134755771Y-83452856D01*
X134755771Y-83452856D02*
X134660533Y-83500475D01*
X134660533Y-83500475D02*
X134565295Y-83500475D01*
X134565295Y-83500475D02*
X134470057Y-83452856D01*
X134470057Y-83452856D02*
X134422438Y-83405237D01*
X134422438Y-83405237D02*
X134374819Y-83309999D01*
X134374819Y-83309999D02*
X134374819Y-83071904D01*
X134374819Y-83071904D02*
X134422438Y-82929047D01*
X135279580Y-81929047D02*
X135327200Y-81976666D01*
X135327200Y-81976666D02*
X135374819Y-82119523D01*
X135374819Y-82119523D02*
X135374819Y-82214761D01*
X135374819Y-82214761D02*
X135327200Y-82357618D01*
X135327200Y-82357618D02*
X135231961Y-82452856D01*
X135231961Y-82452856D02*
X135136723Y-82500475D01*
X135136723Y-82500475D02*
X134946247Y-82548094D01*
X134946247Y-82548094D02*
X134803390Y-82548094D01*
X134803390Y-82548094D02*
X134612914Y-82500475D01*
X134612914Y-82500475D02*
X134517676Y-82452856D01*
X134517676Y-82452856D02*
X134422438Y-82357618D01*
X134422438Y-82357618D02*
X134374819Y-82214761D01*
X134374819Y-82214761D02*
X134374819Y-82119523D01*
X134374819Y-82119523D02*
X134422438Y-81976666D01*
X134422438Y-81976666D02*
X134470057Y-81929047D01*
X135374819Y-81024285D02*
X135374819Y-81500475D01*
X135374819Y-81500475D02*
X134374819Y-81500475D01*
X136962438Y-83071904D02*
X136914819Y-83167142D01*
X136914819Y-83167142D02*
X136914819Y-83309999D01*
X136914819Y-83309999D02*
X136962438Y-83452856D01*
X136962438Y-83452856D02*
X137057676Y-83548094D01*
X137057676Y-83548094D02*
X137152914Y-83595713D01*
X137152914Y-83595713D02*
X137343390Y-83643332D01*
X137343390Y-83643332D02*
X137486247Y-83643332D01*
X137486247Y-83643332D02*
X137676723Y-83595713D01*
X137676723Y-83595713D02*
X137771961Y-83548094D01*
X137771961Y-83548094D02*
X137867200Y-83452856D01*
X137867200Y-83452856D02*
X137914819Y-83309999D01*
X137914819Y-83309999D02*
X137914819Y-83214761D01*
X137914819Y-83214761D02*
X137867200Y-83071904D01*
X137867200Y-83071904D02*
X137819580Y-83024285D01*
X137819580Y-83024285D02*
X137486247Y-83024285D01*
X137486247Y-83024285D02*
X137486247Y-83214761D01*
X137914819Y-82595713D02*
X136914819Y-82595713D01*
X136914819Y-82595713D02*
X137914819Y-82024285D01*
X137914819Y-82024285D02*
X136914819Y-82024285D01*
X137914819Y-81548094D02*
X136914819Y-81548094D01*
X136914819Y-81548094D02*
X136914819Y-81309999D01*
X136914819Y-81309999D02*
X136962438Y-81167142D01*
X136962438Y-81167142D02*
X137057676Y-81071904D01*
X137057676Y-81071904D02*
X137152914Y-81024285D01*
X137152914Y-81024285D02*
X137343390Y-80976666D01*
X137343390Y-80976666D02*
X137486247Y-80976666D01*
X137486247Y-80976666D02*
X137676723Y-81024285D01*
X137676723Y-81024285D02*
X137771961Y-81071904D01*
X137771961Y-81071904D02*
X137867200Y-81167142D01*
X137867200Y-81167142D02*
X137914819Y-81309999D01*
X137914819Y-81309999D02*
X137914819Y-81548094D01*
X139454819Y-83643332D02*
X140454819Y-83309999D01*
X140454819Y-83309999D02*
X139454819Y-82976666D01*
X140359580Y-82071904D02*
X140407200Y-82119523D01*
X140407200Y-82119523D02*
X140454819Y-82262380D01*
X140454819Y-82262380D02*
X140454819Y-82357618D01*
X140454819Y-82357618D02*
X140407200Y-82500475D01*
X140407200Y-82500475D02*
X140311961Y-82595713D01*
X140311961Y-82595713D02*
X140216723Y-82643332D01*
X140216723Y-82643332D02*
X140026247Y-82690951D01*
X140026247Y-82690951D02*
X139883390Y-82690951D01*
X139883390Y-82690951D02*
X139692914Y-82643332D01*
X139692914Y-82643332D02*
X139597676Y-82595713D01*
X139597676Y-82595713D02*
X139502438Y-82500475D01*
X139502438Y-82500475D02*
X139454819Y-82357618D01*
X139454819Y-82357618D02*
X139454819Y-82262380D01*
X139454819Y-82262380D02*
X139502438Y-82119523D01*
X139502438Y-82119523D02*
X139550057Y-82071904D01*
X140359580Y-81071904D02*
X140407200Y-81119523D01*
X140407200Y-81119523D02*
X140454819Y-81262380D01*
X140454819Y-81262380D02*
X140454819Y-81357618D01*
X140454819Y-81357618D02*
X140407200Y-81500475D01*
X140407200Y-81500475D02*
X140311961Y-81595713D01*
X140311961Y-81595713D02*
X140216723Y-81643332D01*
X140216723Y-81643332D02*
X140026247Y-81690951D01*
X140026247Y-81690951D02*
X139883390Y-81690951D01*
X139883390Y-81690951D02*
X139692914Y-81643332D01*
X139692914Y-81643332D02*
X139597676Y-81595713D01*
X139597676Y-81595713D02*
X139502438Y-81500475D01*
X139502438Y-81500475D02*
X139454819Y-81357618D01*
X139454819Y-81357618D02*
X139454819Y-81262380D01*
X139454819Y-81262380D02*
X139502438Y-81119523D01*
X139502438Y-81119523D02*
X139550057Y-81071904D01*
X56940476Y-61004819D02*
X56940476Y-61719104D01*
X56940476Y-61719104D02*
X56892857Y-61861961D01*
X56892857Y-61861961D02*
X56797619Y-61957200D01*
X56797619Y-61957200D02*
X56654762Y-62004819D01*
X56654762Y-62004819D02*
X56559524Y-62004819D01*
X57369048Y-61100057D02*
X57416667Y-61052438D01*
X57416667Y-61052438D02*
X57511905Y-61004819D01*
X57511905Y-61004819D02*
X57750000Y-61004819D01*
X57750000Y-61004819D02*
X57845238Y-61052438D01*
X57845238Y-61052438D02*
X57892857Y-61100057D01*
X57892857Y-61100057D02*
X57940476Y-61195295D01*
X57940476Y-61195295D02*
X57940476Y-61290533D01*
X57940476Y-61290533D02*
X57892857Y-61433390D01*
X57892857Y-61433390D02*
X57321429Y-62004819D01*
X57321429Y-62004819D02*
X57940476Y-62004819D01*
X58559524Y-61004819D02*
X58654762Y-61004819D01*
X58654762Y-61004819D02*
X58750000Y-61052438D01*
X58750000Y-61052438D02*
X58797619Y-61100057D01*
X58797619Y-61100057D02*
X58845238Y-61195295D01*
X58845238Y-61195295D02*
X58892857Y-61385771D01*
X58892857Y-61385771D02*
X58892857Y-61623866D01*
X58892857Y-61623866D02*
X58845238Y-61814342D01*
X58845238Y-61814342D02*
X58797619Y-61909580D01*
X58797619Y-61909580D02*
X58750000Y-61957200D01*
X58750000Y-61957200D02*
X58654762Y-62004819D01*
X58654762Y-62004819D02*
X58559524Y-62004819D01*
X58559524Y-62004819D02*
X58464286Y-61957200D01*
X58464286Y-61957200D02*
X58416667Y-61909580D01*
X58416667Y-61909580D02*
X58369048Y-61814342D01*
X58369048Y-61814342D02*
X58321429Y-61623866D01*
X58321429Y-61623866D02*
X58321429Y-61385771D01*
X58321429Y-61385771D02*
X58369048Y-61195295D01*
X58369048Y-61195295D02*
X58416667Y-61100057D01*
X58416667Y-61100057D02*
X58464286Y-61052438D01*
X58464286Y-61052438D02*
X58559524Y-61004819D01*
X230610476Y-92404819D02*
X230610476Y-93119104D01*
X230610476Y-93119104D02*
X230562857Y-93261961D01*
X230562857Y-93261961D02*
X230467619Y-93357200D01*
X230467619Y-93357200D02*
X230324762Y-93404819D01*
X230324762Y-93404819D02*
X230229524Y-93404819D01*
X231610476Y-93404819D02*
X231039048Y-93404819D01*
X231324762Y-93404819D02*
X231324762Y-92404819D01*
X231324762Y-92404819D02*
X231229524Y-92547676D01*
X231229524Y-92547676D02*
X231134286Y-92642914D01*
X231134286Y-92642914D02*
X231039048Y-92690533D01*
X232467619Y-92404819D02*
X232277143Y-92404819D01*
X232277143Y-92404819D02*
X232181905Y-92452438D01*
X232181905Y-92452438D02*
X232134286Y-92500057D01*
X232134286Y-92500057D02*
X232039048Y-92642914D01*
X232039048Y-92642914D02*
X231991429Y-92833390D01*
X231991429Y-92833390D02*
X231991429Y-93214342D01*
X231991429Y-93214342D02*
X232039048Y-93309580D01*
X232039048Y-93309580D02*
X232086667Y-93357200D01*
X232086667Y-93357200D02*
X232181905Y-93404819D01*
X232181905Y-93404819D02*
X232372381Y-93404819D01*
X232372381Y-93404819D02*
X232467619Y-93357200D01*
X232467619Y-93357200D02*
X232515238Y-93309580D01*
X232515238Y-93309580D02*
X232562857Y-93214342D01*
X232562857Y-93214342D02*
X232562857Y-92976247D01*
X232562857Y-92976247D02*
X232515238Y-92881009D01*
X232515238Y-92881009D02*
X232467619Y-92833390D01*
X232467619Y-92833390D02*
X232372381Y-92785771D01*
X232372381Y-92785771D02*
X232181905Y-92785771D01*
X232181905Y-92785771D02*
X232086667Y-92833390D01*
X232086667Y-92833390D02*
X232039048Y-92881009D01*
X232039048Y-92881009D02*
X231991429Y-92976247D01*
X85585714Y-66353104D02*
X86061904Y-66353104D01*
X85490476Y-66638819D02*
X85823809Y-65638819D01*
X85823809Y-65638819D02*
X86157142Y-66638819D01*
X86442857Y-65734057D02*
X86490476Y-65686438D01*
X86490476Y-65686438D02*
X86585714Y-65638819D01*
X86585714Y-65638819D02*
X86823809Y-65638819D01*
X86823809Y-65638819D02*
X86919047Y-65686438D01*
X86919047Y-65686438D02*
X86966666Y-65734057D01*
X86966666Y-65734057D02*
X87014285Y-65829295D01*
X87014285Y-65829295D02*
X87014285Y-65924533D01*
X87014285Y-65924533D02*
X86966666Y-66067390D01*
X86966666Y-66067390D02*
X86395238Y-66638819D01*
X86395238Y-66638819D02*
X87014285Y-66638819D01*
X146244000Y-88895580D02*
X146291619Y-88943200D01*
X146291619Y-88943200D02*
X146244000Y-88990819D01*
X146244000Y-88990819D02*
X146196381Y-88943200D01*
X146196381Y-88943200D02*
X146244000Y-88895580D01*
X146244000Y-88895580D02*
X146244000Y-88990819D01*
X146521905Y-72099819D02*
X146521905Y-71099819D01*
X146521905Y-71099819D02*
X146760000Y-71099819D01*
X146760000Y-71099819D02*
X146902857Y-71147438D01*
X146902857Y-71147438D02*
X146998095Y-71242676D01*
X146998095Y-71242676D02*
X147045714Y-71337914D01*
X147045714Y-71337914D02*
X147093333Y-71528390D01*
X147093333Y-71528390D02*
X147093333Y-71671247D01*
X147093333Y-71671247D02*
X147045714Y-71861723D01*
X147045714Y-71861723D02*
X146998095Y-71956961D01*
X146998095Y-71956961D02*
X146902857Y-72052200D01*
X146902857Y-72052200D02*
X146760000Y-72099819D01*
X146760000Y-72099819D02*
X146521905Y-72099819D01*
X147712381Y-71099819D02*
X147807619Y-71099819D01*
X147807619Y-71099819D02*
X147902857Y-71147438D01*
X147902857Y-71147438D02*
X147950476Y-71195057D01*
X147950476Y-71195057D02*
X147998095Y-71290295D01*
X147998095Y-71290295D02*
X148045714Y-71480771D01*
X148045714Y-71480771D02*
X148045714Y-71718866D01*
X148045714Y-71718866D02*
X147998095Y-71909342D01*
X147998095Y-71909342D02*
X147950476Y-72004580D01*
X147950476Y-72004580D02*
X147902857Y-72052200D01*
X147902857Y-72052200D02*
X147807619Y-72099819D01*
X147807619Y-72099819D02*
X147712381Y-72099819D01*
X147712381Y-72099819D02*
X147617143Y-72052200D01*
X147617143Y-72052200D02*
X147569524Y-72004580D01*
X147569524Y-72004580D02*
X147521905Y-71909342D01*
X147521905Y-71909342D02*
X147474286Y-71718866D01*
X147474286Y-71718866D02*
X147474286Y-71480771D01*
X147474286Y-71480771D02*
X147521905Y-71290295D01*
X147521905Y-71290295D02*
X147569524Y-71195057D01*
X147569524Y-71195057D02*
X147617143Y-71147438D01*
X147617143Y-71147438D02*
X147712381Y-71099819D01*
X45389104Y-112064285D02*
X45389104Y-111588095D01*
X45674819Y-112159523D02*
X44674819Y-111826190D01*
X44674819Y-111826190D02*
X45674819Y-111492857D01*
X44674819Y-111254761D02*
X44674819Y-110635714D01*
X44674819Y-110635714D02*
X45055771Y-110969047D01*
X45055771Y-110969047D02*
X45055771Y-110826190D01*
X45055771Y-110826190D02*
X45103390Y-110730952D01*
X45103390Y-110730952D02*
X45151009Y-110683333D01*
X45151009Y-110683333D02*
X45246247Y-110635714D01*
X45246247Y-110635714D02*
X45484342Y-110635714D01*
X45484342Y-110635714D02*
X45579580Y-110683333D01*
X45579580Y-110683333D02*
X45627200Y-110730952D01*
X45627200Y-110730952D02*
X45674819Y-110826190D01*
X45674819Y-110826190D02*
X45674819Y-111111904D01*
X45674819Y-111111904D02*
X45627200Y-111207142D01*
X45627200Y-111207142D02*
X45579580Y-111254761D01*
%TO.C,D3*%
D12*
X64124000Y-94878000D02*
X64124000Y-99178000D01*
X64124000Y-94878000D02*
X71534000Y-94878000D01*
X64124000Y-99178000D02*
X71534000Y-99178000D01*
%TO.C,S1*%
D13*
X72360000Y-71650000D02*
X82560000Y-71650000D01*
X72360000Y-74350000D02*
X72360000Y-71650000D01*
X82560000Y-71650000D02*
X82560000Y-74350000D01*
X82560000Y-74350000D02*
X72360000Y-74350000D01*
X76810000Y-72100000D02*
G75*
G02*
X76710000Y-72100000I-50000J0D01*
G01*
X76710000Y-72100000D02*
G75*
G02*
X76810000Y-72100000I50000J0D01*
G01*
%TO.C,J13*%
D12*
X222070000Y-83750000D02*
X222070000Y-85000000D01*
X222360000Y-84040000D02*
X222360000Y-90010000D01*
X222360000Y-90010000D02*
X237480000Y-90010000D01*
X222370000Y-84050000D02*
X222370000Y-84800000D01*
X222370000Y-84800000D02*
X224170000Y-84800000D01*
X222370000Y-86300000D02*
X223120000Y-86300000D01*
X223120000Y-86300000D02*
X223120000Y-87640000D01*
X223320000Y-83750000D02*
X222070000Y-83750000D01*
X224170000Y-84050000D02*
X222370000Y-84050000D01*
X224170000Y-84800000D02*
X224170000Y-84050000D01*
X225670000Y-84050000D02*
X225670000Y-84800000D01*
X225670000Y-84800000D02*
X234170000Y-84800000D01*
X229920000Y-89250000D02*
X224180000Y-89250000D01*
X234170000Y-84050000D02*
X225670000Y-84050000D01*
X234170000Y-84800000D02*
X234170000Y-84050000D01*
X235670000Y-84050000D02*
X235670000Y-84800000D01*
X235670000Y-84800000D02*
X237470000Y-84800000D01*
X236720000Y-86300000D02*
X236720000Y-89250000D01*
X236720000Y-89250000D02*
X229920000Y-89250000D01*
X237470000Y-84050000D02*
X235670000Y-84050000D01*
X237470000Y-84800000D02*
X237470000Y-84050000D01*
X237470000Y-86300000D02*
X236720000Y-86300000D01*
X237480000Y-84040000D02*
X222360000Y-84040000D01*
X237480000Y-90010000D02*
X237480000Y-84040000D01*
%TO.C,A1*%
X47100000Y-64600000D02*
X47100000Y-80100000D01*
X47100000Y-80100000D02*
X67680000Y-80100000D01*
X65010000Y-64600000D02*
X47100000Y-64600000D01*
X65010000Y-67270000D02*
X47100000Y-67270000D01*
X65010000Y-67270000D02*
X65010000Y-64600000D01*
X67680000Y-64600000D02*
X66280000Y-64600000D01*
X67680000Y-66000000D02*
X67680000Y-64600000D01*
X67680000Y-67270000D02*
X65010000Y-67270000D01*
X67680000Y-77430000D02*
X47100000Y-77430000D01*
X67680000Y-80100000D02*
X67680000Y-67270000D01*
%TO.C,J22*%
X223570000Y-73750000D02*
X223570000Y-75000000D01*
X223860000Y-74040000D02*
X223860000Y-80010000D01*
X223860000Y-80010000D02*
X236480000Y-80010000D01*
X223870000Y-74050000D02*
X223870000Y-74800000D01*
X223870000Y-74800000D02*
X225670000Y-74800000D01*
X223870000Y-76300000D02*
X224620000Y-76300000D01*
X224620000Y-76300000D02*
X224620000Y-77640000D01*
X224820000Y-73750000D02*
X223570000Y-73750000D01*
X225670000Y-74050000D02*
X223870000Y-74050000D01*
X225670000Y-74800000D02*
X225670000Y-74050000D01*
X227170000Y-74050000D02*
X227170000Y-74800000D01*
X227170000Y-74800000D02*
X233170000Y-74800000D01*
X230170000Y-79250000D02*
X225680000Y-79250000D01*
X233170000Y-74050000D02*
X227170000Y-74050000D01*
X233170000Y-74800000D02*
X233170000Y-74050000D01*
X234670000Y-74050000D02*
X234670000Y-74800000D01*
X234670000Y-74800000D02*
X236470000Y-74800000D01*
X235720000Y-76300000D02*
X235720000Y-79250000D01*
X235720000Y-79250000D02*
X230170000Y-79250000D01*
X236470000Y-74050000D02*
X234670000Y-74050000D01*
X236470000Y-74800000D02*
X236470000Y-74050000D01*
X236470000Y-76300000D02*
X235720000Y-76300000D01*
X236480000Y-74040000D02*
X223860000Y-74040000D01*
X236480000Y-80010000D02*
X236480000Y-74040000D01*
%TO.C,U4*%
D11*
X192350000Y-77010000D02*
X210350000Y-77010000D01*
X210350000Y-110010000D01*
X192350000Y-110010000D01*
X192350000Y-77010000D01*
%TO.C,J17*%
D12*
X226650000Y-122250000D02*
X226650000Y-123500000D01*
X226940000Y-122540000D02*
X226940000Y-128510000D01*
X226940000Y-128510000D02*
X239560000Y-128510000D01*
X226950000Y-122550000D02*
X226950000Y-123300000D01*
X226950000Y-123300000D02*
X228750000Y-123300000D01*
X226950000Y-124800000D02*
X227700000Y-124800000D01*
X227700000Y-124800000D02*
X227700000Y-126140000D01*
X227900000Y-122250000D02*
X226650000Y-122250000D01*
X228750000Y-122550000D02*
X226950000Y-122550000D01*
X228750000Y-123300000D02*
X228750000Y-122550000D01*
X230250000Y-122550000D02*
X230250000Y-123300000D01*
X230250000Y-123300000D02*
X236250000Y-123300000D01*
X233250000Y-127750000D02*
X228760000Y-127750000D01*
X236250000Y-122550000D02*
X230250000Y-122550000D01*
X236250000Y-123300000D02*
X236250000Y-122550000D01*
X237750000Y-122550000D02*
X237750000Y-123300000D01*
X237750000Y-123300000D02*
X239550000Y-123300000D01*
X238800000Y-124800000D02*
X238800000Y-127750000D01*
X238800000Y-127750000D02*
X233250000Y-127750000D01*
X239550000Y-122550000D02*
X237750000Y-122550000D01*
X239550000Y-123300000D02*
X239550000Y-122550000D01*
X239550000Y-124800000D02*
X238800000Y-124800000D01*
X239560000Y-122540000D02*
X226940000Y-122540000D01*
X239560000Y-128510000D02*
X239560000Y-122540000D01*
%TO.C,R2*%
X182177064Y-55590000D02*
X180722936Y-55590000D01*
X182177064Y-57410000D02*
X180722936Y-57410000D01*
%TO.C,F1*%
X72410000Y-93480000D02*
X72280000Y-93330000D01*
X72590000Y-93560000D02*
X72410000Y-93480000D01*
X72880000Y-93600000D02*
X72590000Y-93560000D01*
X73170000Y-93520000D02*
X72880000Y-93600000D01*
X73310000Y-92280000D02*
X73430000Y-92420000D01*
X73390000Y-93350000D02*
X73170000Y-93520000D01*
X73430000Y-92420000D02*
X73520000Y-92580000D01*
X73520000Y-92580000D02*
X73570000Y-92830000D01*
X73540000Y-93090000D02*
X73390000Y-93350000D01*
X73570000Y-92830000D02*
X73540000Y-93090000D01*
X74210000Y-89500000D02*
G75*
G02*
X64710000Y-89500000I-4750000J0D01*
G01*
X64710000Y-89500000D02*
G75*
G02*
X74210000Y-89500000I4750000J0D01*
G01*
%TO.C,J8*%
X158650000Y-85250000D02*
X158650000Y-86500000D01*
X158940000Y-85540000D02*
X158940000Y-91510000D01*
X158940000Y-91510000D02*
X171560000Y-91510000D01*
X158950000Y-85550000D02*
X158950000Y-86300000D01*
X158950000Y-86300000D02*
X160750000Y-86300000D01*
X158950000Y-87800000D02*
X159700000Y-87800000D01*
X159700000Y-87800000D02*
X159700000Y-89140000D01*
X159900000Y-85250000D02*
X158650000Y-85250000D01*
X160750000Y-85550000D02*
X158950000Y-85550000D01*
X160750000Y-86300000D02*
X160750000Y-85550000D01*
X162250000Y-85550000D02*
X162250000Y-86300000D01*
X162250000Y-86300000D02*
X168250000Y-86300000D01*
X165250000Y-90750000D02*
X160760000Y-90750000D01*
X168250000Y-85550000D02*
X162250000Y-85550000D01*
X168250000Y-86300000D02*
X168250000Y-85550000D01*
X169750000Y-85550000D02*
X169750000Y-86300000D01*
X169750000Y-86300000D02*
X171550000Y-86300000D01*
X170800000Y-87800000D02*
X170800000Y-90750000D01*
X170800000Y-90750000D02*
X165250000Y-90750000D01*
X171550000Y-85550000D02*
X169750000Y-85550000D01*
X171550000Y-86300000D02*
X171550000Y-85550000D01*
X171550000Y-87800000D02*
X170800000Y-87800000D01*
X171560000Y-85540000D02*
X158940000Y-85540000D01*
X171560000Y-91510000D02*
X171560000Y-85540000D01*
%TO.C,R3*%
X182677064Y-59590000D02*
X181222936Y-59590000D01*
X182677064Y-61410000D02*
X181222936Y-61410000D01*
%TO.C,A4*%
X218940000Y-56400000D02*
X218940000Y-69230000D01*
X218940000Y-59070000D02*
X239520000Y-59070000D01*
X218940000Y-69230000D02*
X221610000Y-69230000D01*
X218940000Y-70500000D02*
X218940000Y-71900000D01*
X218940000Y-71900000D02*
X220340000Y-71900000D01*
X221610000Y-69230000D02*
X221610000Y-71900000D01*
X221610000Y-69230000D02*
X239520000Y-69230000D01*
X221610000Y-71900000D02*
X239520000Y-71900000D01*
X239520000Y-56400000D02*
X218940000Y-56400000D01*
X239520000Y-71900000D02*
X239520000Y-56400000D01*
%TO.C,J7*%
X69670000Y-53590000D02*
X71000000Y-53590000D01*
X69670000Y-54920000D02*
X69670000Y-53590000D01*
X69670000Y-56190000D02*
X69670000Y-61330000D01*
X69670000Y-56190000D02*
X72330000Y-56190000D01*
X69670000Y-61330000D02*
X72330000Y-61330000D01*
X72330000Y-56190000D02*
X72330000Y-61330000D01*
%TO.C,D2*%
X80944000Y-95433000D02*
X80944000Y-97353000D01*
X80944000Y-97353000D02*
X83804000Y-97353000D01*
X83804000Y-95433000D02*
X80944000Y-95433000D01*
%TO.C,J11*%
X73170000Y-122670000D02*
X74500000Y-122670000D01*
X73170000Y-124000000D02*
X73170000Y-122670000D01*
X73170000Y-125270000D02*
X73170000Y-130410000D01*
X73170000Y-125270000D02*
X75830000Y-125270000D01*
X73170000Y-130410000D02*
X75830000Y-130410000D01*
X75830000Y-125270000D02*
X75830000Y-130410000D01*
%TO.C,J18*%
X106650000Y-91750000D02*
X106650000Y-93000000D01*
X106940000Y-92040000D02*
X106940000Y-98010000D01*
X106940000Y-98010000D02*
X114560000Y-98010000D01*
X106950000Y-92050000D02*
X106950000Y-92800000D01*
X106950000Y-92800000D02*
X108750000Y-92800000D01*
X106950000Y-94300000D02*
X107700000Y-94300000D01*
X107700000Y-94300000D02*
X107700000Y-95640000D01*
X107900000Y-91750000D02*
X106650000Y-91750000D01*
X108750000Y-92050000D02*
X106950000Y-92050000D01*
X108750000Y-92800000D02*
X108750000Y-92050000D01*
X110250000Y-92050000D02*
X110250000Y-92800000D01*
X110250000Y-92800000D02*
X111250000Y-92800000D01*
X110750000Y-97250000D02*
X108760000Y-97250000D01*
X111250000Y-92050000D02*
X110250000Y-92050000D01*
X111250000Y-92800000D02*
X111250000Y-92050000D01*
X112750000Y-92050000D02*
X112750000Y-92800000D01*
X112750000Y-92800000D02*
X114550000Y-92800000D01*
X113800000Y-94300000D02*
X113800000Y-97250000D01*
X113800000Y-97250000D02*
X110750000Y-97250000D01*
X114550000Y-92050000D02*
X112750000Y-92050000D01*
X114550000Y-92800000D02*
X114550000Y-92050000D01*
X114550000Y-94300000D02*
X113800000Y-94300000D01*
X114560000Y-92040000D02*
X106940000Y-92040000D01*
X114560000Y-98010000D02*
X114560000Y-92040000D01*
%TO.C,J14*%
X94650000Y-91750000D02*
X94650000Y-93000000D01*
X94940000Y-92040000D02*
X94940000Y-98010000D01*
X94940000Y-98010000D02*
X102560000Y-98010000D01*
X94950000Y-92050000D02*
X94950000Y-92800000D01*
X94950000Y-92800000D02*
X96750000Y-92800000D01*
X94950000Y-94300000D02*
X95700000Y-94300000D01*
X95700000Y-94300000D02*
X95700000Y-95640000D01*
X95900000Y-91750000D02*
X94650000Y-91750000D01*
X96750000Y-92050000D02*
X94950000Y-92050000D01*
X96750000Y-92800000D02*
X96750000Y-92050000D01*
X98250000Y-92050000D02*
X98250000Y-92800000D01*
X98250000Y-92800000D02*
X99250000Y-92800000D01*
X98750000Y-97250000D02*
X96760000Y-97250000D01*
X99250000Y-92050000D02*
X98250000Y-92050000D01*
X99250000Y-92800000D02*
X99250000Y-92050000D01*
X100750000Y-92050000D02*
X100750000Y-92800000D01*
X100750000Y-92800000D02*
X102550000Y-92800000D01*
X101800000Y-94300000D02*
X101800000Y-97250000D01*
X101800000Y-97250000D02*
X98750000Y-97250000D01*
X102550000Y-92050000D02*
X100750000Y-92050000D01*
X102550000Y-92800000D02*
X102550000Y-92050000D01*
X102550000Y-94300000D02*
X101800000Y-94300000D01*
X102560000Y-92040000D02*
X94940000Y-92040000D01*
X102560000Y-98010000D02*
X102560000Y-92040000D01*
%TO.C,J3*%
X213670000Y-55170000D02*
X215000000Y-55170000D01*
X213670000Y-56500000D02*
X213670000Y-55170000D01*
X213670000Y-57770000D02*
X213670000Y-62910000D01*
X213670000Y-57770000D02*
X216330000Y-57770000D01*
X213670000Y-62910000D02*
X216330000Y-62910000D01*
X216330000Y-57770000D02*
X216330000Y-62910000D01*
%TO.C,J15*%
X51850000Y-87000000D02*
X51850000Y-99850000D01*
X51850000Y-99850000D02*
X60150000Y-99850000D01*
X54450000Y-84150000D02*
X51850000Y-87000000D01*
X57600000Y-84150000D02*
X54450000Y-84150000D01*
X60150000Y-87000000D02*
X57600000Y-84150000D01*
X60150000Y-99850000D02*
X60150000Y-87000000D01*
%TO.C,R1*%
X81322936Y-92090000D02*
X82777064Y-92090000D01*
X81322936Y-93910000D02*
X82777064Y-93910000D01*
%TO.C,J4*%
X219670000Y-122170000D02*
X221000000Y-122170000D01*
X219670000Y-123500000D02*
X219670000Y-122170000D01*
X219670000Y-124770000D02*
X219670000Y-129910000D01*
X219670000Y-124770000D02*
X222330000Y-124770000D01*
X219670000Y-129910000D02*
X222330000Y-129910000D01*
X222330000Y-124770000D02*
X222330000Y-129910000D01*
%TO.C,A5*%
X218520000Y-104600000D02*
X218520000Y-117430000D01*
X218520000Y-107270000D02*
X239100000Y-107270000D01*
X218520000Y-117430000D02*
X221190000Y-117430000D01*
X218520000Y-118700000D02*
X218520000Y-120100000D01*
X218520000Y-120100000D02*
X219920000Y-120100000D01*
X221190000Y-117430000D02*
X221190000Y-120100000D01*
X221190000Y-117430000D02*
X239100000Y-117430000D01*
X221190000Y-120100000D02*
X239100000Y-120100000D01*
X239100000Y-104600000D02*
X218520000Y-104600000D01*
X239100000Y-120100000D02*
X239100000Y-104600000D01*
%TO.C,J1*%
X158650000Y-98750000D02*
X158650000Y-100000000D01*
X158940000Y-99040000D02*
X158940000Y-105010000D01*
X158940000Y-105010000D02*
X171560000Y-105010000D01*
X158950000Y-99050000D02*
X158950000Y-99800000D01*
X158950000Y-99800000D02*
X160750000Y-99800000D01*
X158950000Y-101300000D02*
X159700000Y-101300000D01*
X159700000Y-101300000D02*
X159700000Y-102640000D01*
X159900000Y-98750000D02*
X158650000Y-98750000D01*
X160750000Y-99050000D02*
X158950000Y-99050000D01*
X160750000Y-99800000D02*
X160750000Y-99050000D01*
X162250000Y-99050000D02*
X162250000Y-99800000D01*
X162250000Y-99800000D02*
X168250000Y-99800000D01*
X165250000Y-104250000D02*
X160760000Y-104250000D01*
X168250000Y-99050000D02*
X162250000Y-99050000D01*
X168250000Y-99800000D02*
X168250000Y-99050000D01*
X169750000Y-99050000D02*
X169750000Y-99800000D01*
X169750000Y-99800000D02*
X171550000Y-99800000D01*
X170800000Y-101300000D02*
X170800000Y-104250000D01*
X170800000Y-104250000D02*
X165250000Y-104250000D01*
X171550000Y-99050000D02*
X169750000Y-99050000D01*
X171550000Y-99800000D02*
X171550000Y-99050000D01*
X171550000Y-101300000D02*
X170800000Y-101300000D01*
X171560000Y-99040000D02*
X158940000Y-99040000D01*
X171560000Y-105010000D02*
X171560000Y-99040000D01*
%TO.C,J21*%
X53650000Y-124250000D02*
X53650000Y-125500000D01*
X53940000Y-124540000D02*
X53940000Y-130510000D01*
X53940000Y-130510000D02*
X66560000Y-130510000D01*
X53950000Y-124550000D02*
X53950000Y-125300000D01*
X53950000Y-125300000D02*
X55750000Y-125300000D01*
X53950000Y-126800000D02*
X54700000Y-126800000D01*
X54700000Y-126800000D02*
X54700000Y-128140000D01*
X54900000Y-124250000D02*
X53650000Y-124250000D01*
X55750000Y-124550000D02*
X53950000Y-124550000D01*
X55750000Y-125300000D02*
X55750000Y-124550000D01*
X57250000Y-124550000D02*
X57250000Y-125300000D01*
X57250000Y-125300000D02*
X63250000Y-125300000D01*
X60250000Y-129750000D02*
X55760000Y-129750000D01*
X63250000Y-124550000D02*
X57250000Y-124550000D01*
X63250000Y-125300000D02*
X63250000Y-124550000D01*
X64750000Y-124550000D02*
X64750000Y-125300000D01*
X64750000Y-125300000D02*
X66550000Y-125300000D01*
X65800000Y-126800000D02*
X65800000Y-129750000D01*
X65800000Y-129750000D02*
X60250000Y-129750000D01*
X66550000Y-124550000D02*
X64750000Y-124550000D01*
X66550000Y-125300000D02*
X66550000Y-124550000D01*
X66550000Y-126800000D02*
X65800000Y-126800000D01*
X66560000Y-124540000D02*
X53940000Y-124540000D01*
X66560000Y-130510000D02*
X66560000Y-124540000D01*
%TO.C,U1*%
X120950000Y-76700000D02*
X141524000Y-76700000D01*
X120950000Y-93740000D02*
X120950000Y-76700000D01*
X141524000Y-76700000D02*
X141524000Y-93740000D01*
X141524000Y-93740000D02*
X120950000Y-93740000D01*
X124736000Y-91200000D02*
G75*
G02*
X121736000Y-91200000I-1500000J0D01*
G01*
X121736000Y-91200000D02*
G75*
G02*
X124736000Y-91200000I1500000J0D01*
G01*
X140738000Y-91200000D02*
G75*
G02*
X137738000Y-91200000I-1500000J0D01*
G01*
X137738000Y-91200000D02*
G75*
G02*
X140738000Y-91200000I1500000J0D01*
G01*
%TO.C,J20*%
X51440000Y-54490000D02*
X51440000Y-60460000D01*
X51440000Y-60460000D02*
X64060000Y-60460000D01*
X51450000Y-58200000D02*
X52200000Y-58200000D01*
X51450000Y-59700000D02*
X51450000Y-60450000D01*
X51450000Y-60450000D02*
X53250000Y-60450000D01*
X52200000Y-55250000D02*
X57750000Y-55250000D01*
X52200000Y-58200000D02*
X52200000Y-55250000D01*
X53250000Y-59700000D02*
X51450000Y-59700000D01*
X53250000Y-60450000D02*
X53250000Y-59700000D01*
X54750000Y-59700000D02*
X54750000Y-60450000D01*
X54750000Y-60450000D02*
X60750000Y-60450000D01*
X57750000Y-55250000D02*
X62240000Y-55250000D01*
X60750000Y-59700000D02*
X54750000Y-59700000D01*
X60750000Y-60450000D02*
X60750000Y-59700000D01*
X62250000Y-59700000D02*
X62250000Y-60450000D01*
X62250000Y-60450000D02*
X64050000Y-60450000D01*
X63100000Y-60750000D02*
X64350000Y-60750000D01*
X63300000Y-58200000D02*
X63300000Y-56860000D01*
X64050000Y-58200000D02*
X63300000Y-58200000D01*
X64050000Y-59700000D02*
X62250000Y-59700000D01*
X64050000Y-60450000D02*
X64050000Y-59700000D01*
X64060000Y-54490000D02*
X51440000Y-54490000D01*
X64060000Y-60460000D02*
X64060000Y-54490000D01*
X64350000Y-60750000D02*
X64350000Y-59500000D01*
%TO.C,J16*%
X223570000Y-93750000D02*
X223570000Y-95000000D01*
X223860000Y-94040000D02*
X223860000Y-100010000D01*
X223860000Y-100010000D02*
X238980000Y-100010000D01*
X223870000Y-94050000D02*
X223870000Y-94800000D01*
X223870000Y-94800000D02*
X225670000Y-94800000D01*
X223870000Y-96300000D02*
X224620000Y-96300000D01*
X224620000Y-96300000D02*
X224620000Y-97640000D01*
X224820000Y-93750000D02*
X223570000Y-93750000D01*
X225670000Y-94050000D02*
X223870000Y-94050000D01*
X225670000Y-94800000D02*
X225670000Y-94050000D01*
X227170000Y-94050000D02*
X227170000Y-94800000D01*
X227170000Y-94800000D02*
X235670000Y-94800000D01*
X231420000Y-99250000D02*
X225680000Y-99250000D01*
X235670000Y-94050000D02*
X227170000Y-94050000D01*
X235670000Y-94800000D02*
X235670000Y-94050000D01*
X237170000Y-94050000D02*
X237170000Y-94800000D01*
X237170000Y-94800000D02*
X238970000Y-94800000D01*
X238220000Y-96300000D02*
X238220000Y-99250000D01*
X238220000Y-99250000D02*
X231420000Y-99250000D01*
X238970000Y-94050000D02*
X237170000Y-94050000D01*
X238970000Y-94800000D02*
X238970000Y-94050000D01*
X238970000Y-96300000D02*
X238220000Y-96300000D01*
X238980000Y-94040000D02*
X223860000Y-94040000D01*
X238980000Y-100010000D02*
X238980000Y-94040000D01*
%TO.C,A3*%
X46360000Y-103600000D02*
X46360000Y-116430000D01*
X46360000Y-106270000D02*
X66940000Y-106270000D01*
X46360000Y-116430000D02*
X49030000Y-116430000D01*
X46360000Y-117700000D02*
X46360000Y-119100000D01*
X46360000Y-119100000D02*
X47760000Y-119100000D01*
X49030000Y-116430000D02*
X49030000Y-119100000D01*
X49030000Y-116430000D02*
X66940000Y-116430000D01*
X49030000Y-119100000D02*
X66940000Y-119100000D01*
X66940000Y-103600000D02*
X46360000Y-103600000D01*
X66940000Y-119100000D02*
X66940000Y-103600000D01*
%TD*%
M02*
